<svg width="64" height="64" viewBox="0 0 64 64" fill="none" xmlns="http://www.w3.org/2000/svg">
<circle cx="32" cy="32" r="32" fill="#25452D"/>
<g opacity="0.9">
<path d="M32 28.5L15.5 30L17.5 34.5L32 38L45.5 34.5L49.5 30L32 28.5Z" fill="#FFFEFC"/>
<path d="M25.2258 22.5C22.7742 22.5 15.3871 27.3351 12 30.398H16.3478C20.7381 30.398 28.0891 29.3506 32.1613 29.3506C36.727 29.3506 44.7289 30.398 48.9565 30.398H52C48.4516 27.3351 40.8064 22.5 38.6129 22.5C35.871 22.5 33.9355 24.9978 32.1613 24.9978C30.3871 24.9978 28.2903 22.5 25.2258 22.5Z" fill="url(#paint0_linear_147_2143)"/>
<path d="M15.0435 30.3979H12C14.1268 34.932 20.9343 44 32.2174 44C43.5005 44 49.7613 34.932 52 30.3979H49.3913C49.3913 30.3979 41.9558 35.6633 32.2174 35.6633C22.479 35.6633 15.0435 30.3979 15.0435 30.3979Z" fill="url(#paint1_linear_147_2143)"/>
</g>
<defs>
<linearGradient id="paint0_linear_147_2143" x1="32" y1="22.5" x2="32" y2="30.398" gradientUnits="userSpaceOnUse">
<stop stop-color="#C97F7A"/>
<stop offset="1" stop-color="#E0A29F"/>
</linearGradient>
<linearGradient id="paint1_linear_147_2143" x1="32" y1="30.3979" x2="32" y2="44" gradientUnits="userSpaceOnUse">
<stop stop-color="#C97F7A"/>
<stop offset="1" stop-color="#E0A29F"/>
</linearGradient>
</defs>
</svg>
