<svg width="64" height="64" viewBox="0 0 64 64" fill="none" xmlns="http://www.w3.org/2000/svg">
<circle cx="32" cy="32" r="32" fill="#25452D"/>
<path fill-rule="evenodd" clip-rule="evenodd" d="M36.3638 14.3455C33.7478 15.4663 29.9723 15.4663 27.3564 14.3455C25.2309 13.4349 22.8535 13.3505 20.6598 14.3047C16.0296 16.3187 13.9534 22.2051 15.9702 27.5143L15.969 27.5148L19.2709 35.8362L22.3719 48.0612C22.7172 49.4224 23.9374 50.375 25.3356 50.375C26.8373 50.375 28.1168 49.2797 28.3552 47.7902L29.7618 39.0015C29.9275 37.9664 30.8166 37.2053 31.8601 37.2053C32.9037 37.2053 33.7928 37.9665 33.9585 39.0015L35.3651 47.7902C35.6034 49.2797 36.883 50.375 38.3846 50.375C39.7829 50.375 41.003 49.4224 41.3483 48.0612L44.4493 35.8362L47.7512 27.5148L47.75 27.5143C49.7668 22.2051 47.6906 16.3187 43.0604 14.3047C40.8667 13.3505 38.4893 13.4349 36.3638 14.3455Z" fill="url(#paint0_linear_139_1912)"/>
<path fill-rule="evenodd" clip-rule="evenodd" d="M31.9736 15.1856C31.9773 15.8555 31.7236 16.5264 31.2125 17.0375C30.1977 18.0523 30.1977 19.6977 31.2125 20.7125C32.2273 21.7273 32.2273 23.3727 31.2125 24.3875C30.1977 25.4023 30.1977 27.0477 31.2125 28.0625C32.2273 29.0773 32.2273 30.7227 31.2125 31.7375C30.1977 32.7523 30.1977 34.3977 31.2125 35.4125L31.2737 35.4737C31.7561 35.9561 32.0181 36.5791 32.0555 37.2143C31.991 37.2084 31.9258 37.2053 31.86 37.2053C30.8165 37.2053 29.9274 37.9664 29.7617 39.0015L28.3551 47.7902C28.1167 49.2797 26.8371 50.375 25.3355 50.375C23.9373 50.375 22.7171 49.4224 22.3718 48.0611L19.2708 35.8362L15.9689 27.5148L15.9701 27.5143C13.9533 22.2051 16.0295 16.3187 20.6597 14.3047C22.8534 13.3505 25.2308 13.4349 27.3562 14.3455C28.6952 14.9192 30.338 15.1992 31.9736 15.1856Z" fill="url(#paint1_linear_139_1912)"/>
<defs>
<linearGradient id="paint0_linear_139_1912" x1="19.6101" y1="13.625" x2="39.7001" y2="48.905" gradientUnits="userSpaceOnUse">
<stop stop-color="#FFFEFC"/>
<stop offset="1" stop-color="#E2E5E3"/>
</linearGradient>
<linearGradient id="paint1_linear_139_1912" x1="19.5044" y1="13.625" x2="39.84" y2="48.4809" gradientUnits="userSpaceOnUse">
<stop stop-color="#E8F8CA"/>
<stop offset="1" stop-color="#29321B"/>
</linearGradient>
</defs>
</svg>
