<svg width="64" height="64" viewBox="0 0 64 64" fill="none" xmlns="http://www.w3.org/2000/svg">
<circle cx="32" cy="32" r="32" fill="#25452D"/>
<rect x="30.95" y="26.225" width="5.25" height="3.15" rx="1.575" transform="rotate(90 30.95 26.225)" fill="url(#paint0_linear_139_1918)"/>
<rect x="37.775" y="26.225" width="5.25" height="3.15" rx="1.575" transform="rotate(90 37.775 26.225)" fill="url(#paint1_linear_139_1918)"/>
<path d="M49.3787 24.1151C49.181 19.4253 45.3215 15.725 40.6275 15.725C35.8477 15.725 31.9504 19.5571 31.8698 24.3363L31.565 42.4115C31.5156 45.3452 33.8802 47.75 36.8143 47.75H44.899C47.8853 47.75 50.2702 45.2625 50.1444 42.2789L49.3787 24.1151Z" fill="url(#paint2_linear_139_1918)"/>
<path d="M14.6249 24.0501C14.8212 19.3966 18.651 15.725 23.3086 15.725C28.1087 15.725 32 19.6163 32 24.4164L32 42.5C32 45.3995 29.6495 47.75 26.75 47.75H19.1012C16.1149 47.75 13.73 45.2624 13.8559 42.2787L14.6249 24.0501Z" fill="url(#paint3_linear_139_1918)"/>
<path fill-rule="evenodd" clip-rule="evenodd" d="M12.0185 29.6814C12.4291 29.0841 13.2462 28.9328 13.8436 29.3435C15.9023 30.7589 22.6761 33.8375 32.2455 33.8375C41.8158 33.8375 48.2431 30.759 50.119 29.3702C50.7016 28.9388 51.5235 29.0614 51.9549 29.644C52.3862 30.2266 52.2636 31.0485 51.681 31.4799C49.3023 33.241 42.3115 36.4625 32.2455 36.4625C22.1784 36.4625 14.8795 33.2412 12.3564 31.5066C11.7591 31.0959 11.6078 30.2788 12.0185 29.6814Z" fill="url(#paint4_linear_139_1918)"/>
<path fill-rule="evenodd" clip-rule="evenodd" d="M51.9816 29.6814C51.5709 29.0841 50.7538 28.9328 50.1565 29.3435C48.0977 30.7589 41.3239 33.8375 31.7546 33.8375C22.1843 33.8375 15.7569 30.759 13.881 29.3702C13.2984 28.9388 12.4765 29.0614 12.0452 29.644C11.6138 30.2266 11.7365 31.0485 12.319 31.4799C14.6977 33.241 21.6885 36.4625 31.7546 36.4625C41.8216 36.4625 49.1205 33.2412 51.6436 31.5066C52.2409 31.0959 52.3923 30.2788 51.9816 29.6814Z" fill="url(#paint5_radial_139_1918)" fill-opacity="0.3"/>
<path fill-rule="evenodd" clip-rule="evenodd" d="M51.9816 29.6814C51.5709 29.0841 50.7538 28.9328 50.1565 29.3435C48.0977 30.7589 41.3239 33.8375 31.7546 33.8375C22.1843 33.8375 15.7569 30.759 13.881 29.3702C13.2984 28.9388 12.4765 29.0614 12.0452 29.644C11.6138 30.2266 11.7365 31.0485 12.319 31.4799C14.6977 33.241 21.6885 36.4625 31.7546 36.4625C41.8216 36.4625 49.1205 33.2412 51.6436 31.5066C52.2409 31.0959 52.3923 30.2788 51.9816 29.6814Z" fill="url(#paint6_radial_139_1918)" fill-opacity="0.3"/>
<path d="M17.9836 30.9608C17.9114 30.2387 18.6309 29.6974 19.3047 29.9669C21.725 30.935 24.425 30.935 26.8453 29.9669C27.5191 29.6974 28.2387 30.2387 28.1664 30.9608L28.0502 32.1237C27.8838 33.7871 27.8838 35.4629 28.0502 37.1263L28.1664 38.2892C28.2387 39.0114 27.5191 39.5527 26.8453 39.2831C24.425 38.315 21.725 38.315 19.3047 39.2831C18.6309 39.5527 17.9114 39.0114 17.9836 38.2892L18.0999 37.1263C18.2662 35.4629 18.2662 33.7871 18.0999 32.1237L17.9836 30.9608Z" fill="#C5CCCB"/>
<g filter="url(#filter0_d_139_1918)">
<path d="M19.925 34.1C19.925 32.9402 20.8652 32 22.025 32H24.125C25.2848 32 26.225 32.9402 26.225 34.1V35.15C26.225 36.3098 25.2848 37.25 24.125 37.25H22.025C20.8652 37.25 19.925 36.3098 19.925 35.15V34.1Z" fill="url(#paint7_linear_139_1918)"/>
<path d="M20.925 34.1C20.925 33.4925 21.4175 33 22.025 33H24.125C24.7325 33 25.225 33.4925 25.225 34.1V35.15C25.225 35.7575 24.7325 36.25 24.125 36.25H22.025C21.4175 36.25 20.925 35.7575 20.925 35.15V34.1Z" stroke="url(#paint8_radial_139_1918)" stroke-width="2"/>
</g>
<g filter="url(#filter1_d_139_1918)">
<path d="M24.125 31.2125C24.125 30.4877 24.7127 29.9 25.4375 29.9C26.1624 29.9 26.75 30.4877 26.75 31.2125V32.7875C26.75 33.5124 26.1624 34.1 25.4375 34.1C24.7127 34.1 24.125 33.5124 24.125 32.7875V31.2125Z" fill="url(#paint9_linear_139_1918)"/>
</g>
<g filter="url(#filter2_d_139_1918)">
<path d="M24.125 36.4625C24.125 35.7377 24.7127 35.15 25.4375 35.15C26.1624 35.15 26.75 35.7377 26.75 36.4625V38.0375C26.75 38.7624 26.1624 39.35 25.4375 39.35C24.7127 39.35 24.125 38.7624 24.125 38.0375V36.4625Z" fill="url(#paint10_linear_139_1918)"/>
</g>
<g filter="url(#filter3_d_139_1918)">
<path d="M19.4 36.4625C19.4 35.7377 19.9877 35.15 20.7125 35.15C21.4374 35.15 22.025 35.7377 22.025 36.4625V38.0375C22.025 38.7624 21.4374 39.35 20.7125 39.35C19.9877 39.35 19.4 38.7624 19.4 38.0375V36.4625Z" fill="url(#paint11_linear_139_1918)"/>
</g>
<g filter="url(#filter4_d_139_1918)">
<path d="M19.4 31.2125C19.4 30.4877 19.9877 29.9 20.7125 29.9C21.4374 29.9 22.025 30.4877 22.025 31.2125V32.7875C22.025 33.5124 21.4374 34.1 20.7125 34.1C19.9877 34.1 19.4 33.5124 19.4 32.7875V31.2125Z" fill="url(#paint12_linear_139_1918)"/>
</g>
<path d="M35.8336 30.9608C35.7614 30.2387 36.4809 29.6974 37.1547 29.9669C39.5751 30.935 42.275 30.935 44.6953 29.9669C45.3692 29.6974 46.0887 30.2387 46.0165 30.9608L45.9002 32.1237C45.7338 33.7871 45.7338 35.4629 45.9002 37.1263L46.0165 38.2892C46.0887 39.0114 45.3692 39.5527 44.6953 39.2831C42.275 38.315 39.5751 38.315 37.1547 39.2831C36.4809 39.5527 35.7614 39.0114 35.8336 38.2892L35.9499 37.1263C36.1163 35.4629 36.1163 33.7871 35.9499 32.1237L35.8336 30.9608Z" fill="#C5CCCB"/>
<g filter="url(#filter5_d_139_1918)">
<rect x="37.775" y="32" width="6.3" height="5.25" rx="2.625" fill="url(#paint13_linear_139_1918)"/>
<rect x="38.775" y="33" width="4.3" height="3.25" rx="1.625" stroke="url(#paint14_radial_139_1918)" stroke-width="2"/>
</g>
<g filter="url(#filter6_d_139_1918)">
<path d="M41.975 31.2125C41.975 30.4877 42.5626 29.9 43.2875 29.9C44.0124 29.9 44.6 30.4877 44.6 31.2125V32.7875C44.6 33.5124 44.0124 34.1 43.2875 34.1C42.5626 34.1 41.975 33.5124 41.975 32.7875V31.2125Z" fill="url(#paint15_linear_139_1918)"/>
</g>
<g filter="url(#filter7_d_139_1918)">
<path d="M41.975 36.4625C41.975 35.7377 42.5626 35.15 43.2875 35.15C44.0124 35.15 44.6 35.7377 44.6 36.4625V38.0375C44.6 38.7624 44.0124 39.35 43.2875 39.35C42.5626 39.35 41.975 38.7624 41.975 38.0375V36.4625Z" fill="url(#paint16_linear_139_1918)"/>
</g>
<g filter="url(#filter8_d_139_1918)">
<path d="M37.25 36.4625C37.25 35.7377 37.8377 35.15 38.5625 35.15C39.2874 35.15 39.875 35.7377 39.875 36.4625V38.0375C39.875 38.7624 39.2874 39.35 38.5625 39.35C37.8377 39.35 37.25 38.7624 37.25 38.0375V36.4625Z" fill="url(#paint17_linear_139_1918)"/>
</g>
<g filter="url(#filter9_d_139_1918)">
<path d="M37.25 31.2125C37.25 30.4877 37.8377 29.9 38.5625 29.9C39.2874 29.9 39.875 30.4877 39.875 31.2125V32.7875C39.875 33.5124 39.2874 34.1 38.5625 34.1C37.8377 34.1 37.25 33.5124 37.25 32.7875V31.2125Z" fill="url(#paint18_linear_139_1918)"/>
</g>
<defs>
<filter id="filter0_d_139_1918" x="11.925" y="28" width="22.3" height="21.25" filterUnits="userSpaceOnUse" color-interpolation-filters="sRGB">
<feFlood flood-opacity="0" result="BackgroundImageFix"/>
<feColorMatrix in="SourceAlpha" type="matrix" values="0 0 0 0 0 0 0 0 0 0 0 0 0 0 0 0 0 0 127 0" result="hardAlpha"/>
<feOffset dy="4"/>
<feGaussianBlur stdDeviation="4"/>
<feComposite in2="hardAlpha" operator="out"/>
<feColorMatrix type="matrix" values="0 0 0 0 0.148194 0 0 0 0 0.235583 0 0 0 0 0.585139 0 0 0 0.13 0"/>
<feBlend mode="normal" in2="BackgroundImageFix" result="effect1_dropShadow_139_1918"/>
<feBlend mode="normal" in="SourceGraphic" in2="effect1_dropShadow_139_1918" result="shape"/>
</filter>
<filter id="filter1_d_139_1918" x="16.125" y="25.9" width="18.625" height="20.2" filterUnits="userSpaceOnUse" color-interpolation-filters="sRGB">
<feFlood flood-opacity="0" result="BackgroundImageFix"/>
<feColorMatrix in="SourceAlpha" type="matrix" values="0 0 0 0 0 0 0 0 0 0 0 0 0 0 0 0 0 0 127 0" result="hardAlpha"/>
<feOffset dy="4"/>
<feGaussianBlur stdDeviation="4"/>
<feComposite in2="hardAlpha" operator="out"/>
<feColorMatrix type="matrix" values="0 0 0 0 0.148194 0 0 0 0 0.235583 0 0 0 0 0.585139 0 0 0 0.13 0"/>
<feBlend mode="normal" in2="BackgroundImageFix" result="effect1_dropShadow_139_1918"/>
<feBlend mode="normal" in="SourceGraphic" in2="effect1_dropShadow_139_1918" result="shape"/>
</filter>
<filter id="filter2_d_139_1918" x="16.125" y="31.15" width="18.625" height="20.2" filterUnits="userSpaceOnUse" color-interpolation-filters="sRGB">
<feFlood flood-opacity="0" result="BackgroundImageFix"/>
<feColorMatrix in="SourceAlpha" type="matrix" values="0 0 0 0 0 0 0 0 0 0 0 0 0 0 0 0 0 0 127 0" result="hardAlpha"/>
<feOffset dy="4"/>
<feGaussianBlur stdDeviation="4"/>
<feComposite in2="hardAlpha" operator="out"/>
<feColorMatrix type="matrix" values="0 0 0 0 0.148194 0 0 0 0 0.235583 0 0 0 0 0.585139 0 0 0 0.13 0"/>
<feBlend mode="normal" in2="BackgroundImageFix" result="effect1_dropShadow_139_1918"/>
<feBlend mode="normal" in="SourceGraphic" in2="effect1_dropShadow_139_1918" result="shape"/>
</filter>
<filter id="filter3_d_139_1918" x="11.4" y="31.15" width="18.625" height="20.2" filterUnits="userSpaceOnUse" color-interpolation-filters="sRGB">
<feFlood flood-opacity="0" result="BackgroundImageFix"/>
<feColorMatrix in="SourceAlpha" type="matrix" values="0 0 0 0 0 0 0 0 0 0 0 0 0 0 0 0 0 0 127 0" result="hardAlpha"/>
<feOffset dy="4"/>
<feGaussianBlur stdDeviation="4"/>
<feComposite in2="hardAlpha" operator="out"/>
<feColorMatrix type="matrix" values="0 0 0 0 0.148194 0 0 0 0 0.235583 0 0 0 0 0.585139 0 0 0 0.13 0"/>
<feBlend mode="normal" in2="BackgroundImageFix" result="effect1_dropShadow_139_1918"/>
<feBlend mode="normal" in="SourceGraphic" in2="effect1_dropShadow_139_1918" result="shape"/>
</filter>
<filter id="filter4_d_139_1918" x="11.4" y="25.9" width="18.625" height="20.2" filterUnits="userSpaceOnUse" color-interpolation-filters="sRGB">
<feFlood flood-opacity="0" result="BackgroundImageFix"/>
<feColorMatrix in="SourceAlpha" type="matrix" values="0 0 0 0 0 0 0 0 0 0 0 0 0 0 0 0 0 0 127 0" result="hardAlpha"/>
<feOffset dy="4"/>
<feGaussianBlur stdDeviation="4"/>
<feComposite in2="hardAlpha" operator="out"/>
<feColorMatrix type="matrix" values="0 0 0 0 0.148194 0 0 0 0 0.235583 0 0 0 0 0.585139 0 0 0 0.13 0"/>
<feBlend mode="normal" in2="BackgroundImageFix" result="effect1_dropShadow_139_1918"/>
<feBlend mode="normal" in="SourceGraphic" in2="effect1_dropShadow_139_1918" result="shape"/>
</filter>
<filter id="filter5_d_139_1918" x="29.775" y="28" width="22.3" height="21.25" filterUnits="userSpaceOnUse" color-interpolation-filters="sRGB">
<feFlood flood-opacity="0" result="BackgroundImageFix"/>
<feColorMatrix in="SourceAlpha" type="matrix" values="0 0 0 0 0 0 0 0 0 0 0 0 0 0 0 0 0 0 127 0" result="hardAlpha"/>
<feOffset dy="4"/>
<feGaussianBlur stdDeviation="4"/>
<feComposite in2="hardAlpha" operator="out"/>
<feColorMatrix type="matrix" values="0 0 0 0 0.148194 0 0 0 0 0.235583 0 0 0 0 0.585139 0 0 0 0.13 0"/>
<feBlend mode="normal" in2="BackgroundImageFix" result="effect1_dropShadow_139_1918"/>
<feBlend mode="normal" in="SourceGraphic" in2="effect1_dropShadow_139_1918" result="shape"/>
</filter>
<filter id="filter6_d_139_1918" x="33.975" y="25.9" width="18.625" height="20.2" filterUnits="userSpaceOnUse" color-interpolation-filters="sRGB">
<feFlood flood-opacity="0" result="BackgroundImageFix"/>
<feColorMatrix in="SourceAlpha" type="matrix" values="0 0 0 0 0 0 0 0 0 0 0 0 0 0 0 0 0 0 127 0" result="hardAlpha"/>
<feOffset dy="4"/>
<feGaussianBlur stdDeviation="4"/>
<feComposite in2="hardAlpha" operator="out"/>
<feColorMatrix type="matrix" values="0 0 0 0 0.148194 0 0 0 0 0.235583 0 0 0 0 0.585139 0 0 0 0.13 0"/>
<feBlend mode="normal" in2="BackgroundImageFix" result="effect1_dropShadow_139_1918"/>
<feBlend mode="normal" in="SourceGraphic" in2="effect1_dropShadow_139_1918" result="shape"/>
</filter>
<filter id="filter7_d_139_1918" x="33.975" y="31.15" width="18.625" height="20.2" filterUnits="userSpaceOnUse" color-interpolation-filters="sRGB">
<feFlood flood-opacity="0" result="BackgroundImageFix"/>
<feColorMatrix in="SourceAlpha" type="matrix" values="0 0 0 0 0 0 0 0 0 0 0 0 0 0 0 0 0 0 127 0" result="hardAlpha"/>
<feOffset dy="4"/>
<feGaussianBlur stdDeviation="4"/>
<feComposite in2="hardAlpha" operator="out"/>
<feColorMatrix type="matrix" values="0 0 0 0 0.148194 0 0 0 0 0.235583 0 0 0 0 0.585139 0 0 0 0.13 0"/>
<feBlend mode="normal" in2="BackgroundImageFix" result="effect1_dropShadow_139_1918"/>
<feBlend mode="normal" in="SourceGraphic" in2="effect1_dropShadow_139_1918" result="shape"/>
</filter>
<filter id="filter8_d_139_1918" x="29.25" y="31.15" width="18.625" height="20.2" filterUnits="userSpaceOnUse" color-interpolation-filters="sRGB">
<feFlood flood-opacity="0" result="BackgroundImageFix"/>
<feColorMatrix in="SourceAlpha" type="matrix" values="0 0 0 0 0 0 0 0 0 0 0 0 0 0 0 0 0 0 127 0" result="hardAlpha"/>
<feOffset dy="4"/>
<feGaussianBlur stdDeviation="4"/>
<feComposite in2="hardAlpha" operator="out"/>
<feColorMatrix type="matrix" values="0 0 0 0 0.148194 0 0 0 0 0.235583 0 0 0 0 0.585139 0 0 0 0.13 0"/>
<feBlend mode="normal" in2="BackgroundImageFix" result="effect1_dropShadow_139_1918"/>
<feBlend mode="normal" in="SourceGraphic" in2="effect1_dropShadow_139_1918" result="shape"/>
</filter>
<filter id="filter9_d_139_1918" x="29.25" y="25.9" width="18.625" height="20.2" filterUnits="userSpaceOnUse" color-interpolation-filters="sRGB">
<feFlood flood-opacity="0" result="BackgroundImageFix"/>
<feColorMatrix in="SourceAlpha" type="matrix" values="0 0 0 0 0 0 0 0 0 0 0 0 0 0 0 0 0 0 127 0" result="hardAlpha"/>
<feOffset dy="4"/>
<feGaussianBlur stdDeviation="4"/>
<feComposite in2="hardAlpha" operator="out"/>
<feColorMatrix type="matrix" values="0 0 0 0 0.148194 0 0 0 0 0.235583 0 0 0 0 0.585139 0 0 0 0.13 0"/>
<feBlend mode="normal" in2="BackgroundImageFix" result="effect1_dropShadow_139_1918"/>
<feBlend mode="normal" in="SourceGraphic" in2="effect1_dropShadow_139_1918" result="shape"/>
</filter>
<linearGradient id="paint0_linear_139_1918" x1="32.6407" y1="26.225" x2="33.7817" y2="26.3018" gradientUnits="userSpaceOnUse">
<stop stop-color="#E2E6F3"/>
<stop offset="1" stop-color="#D5DAF0"/>
</linearGradient>
<linearGradient id="paint1_linear_139_1918" x1="39.4657" y1="26.225" x2="40.6067" y2="26.3018" gradientUnits="userSpaceOnUse">
<stop stop-color="#E2E6F3"/>
<stop offset="1" stop-color="#D5DAF0"/>
</linearGradient>
<linearGradient id="paint2_linear_139_1918" x1="31.475" y1="25.9625" x2="43.1394" y2="36.5453" gradientUnits="userSpaceOnUse">
<stop stop-color="#FFFEFC"/>
<stop offset="1" stop-color="#EBF4EA"/>
</linearGradient>
<linearGradient id="paint3_linear_139_1918" x1="12.575" y1="24.3875" x2="27.7327" y2="41.6034" gradientUnits="userSpaceOnUse">
<stop stop-color="#FFFEFC"/>
<stop offset="1" stop-color="#EBF4EA"/>
</linearGradient>
<linearGradient id="paint4_linear_139_1918" x1="32" y1="30.425" x2="31.7375" y2="37.25" gradientUnits="userSpaceOnUse">
<stop stop-color="#E3E7F6"/>
<stop offset="1" stop-color="#C7CCDF"/>
</linearGradient>
<radialGradient id="paint5_radial_139_1918" cx="0" cy="0" r="1" gradientUnits="userSpaceOnUse" gradientTransform="translate(40.4 34.625) rotate(177.879) scale(7.09236 39.0075)">
<stop stop-color="#D7E9D8"/>
<stop offset="1" stop-color="#B0D4B5" stop-opacity="0"/>
</radialGradient>
<radialGradient id="paint6_radial_139_1918" cx="0" cy="0" r="1" gradientUnits="userSpaceOnUse" gradientTransform="translate(40.4 34.625) rotate(177.879) scale(7.09236 39.0075)">
<stop stop-color="#EBF4EA"/>
<stop offset="1" stop-color="#C3DFC6" stop-opacity="0"/>
</radialGradient>
<linearGradient id="paint7_linear_139_1918" x1="22.456" y1="31.9854" x2="24.1556" y2="37.5215" gradientUnits="userSpaceOnUse">
<stop stop-color="#F2F5FF"/>
<stop offset="1" stop-color="#D6DBF1"/>
</linearGradient>
<radialGradient id="paint8_radial_139_1918" cx="0" cy="0" r="1" gradientUnits="userSpaceOnUse" gradientTransform="translate(25.151 28.336) rotate(131.532) scale(7.87524 8.18086)">
<stop stop-color="white"/>
<stop offset="1" stop-color="white" stop-opacity="0"/>
</radialGradient>
<linearGradient id="paint9_linear_139_1918" x1="25.1796" y1="29.8884" x2="27.2997" y2="33.4849" gradientUnits="userSpaceOnUse">
<stop stop-color="#F2F5FF"/>
<stop offset="0.151042" stop-color="#F8F9FE"/>
<stop offset="1" stop-color="#D6DBF1"/>
</linearGradient>
<linearGradient id="paint10_linear_139_1918" x1="25.1796" y1="35.1384" x2="27.2997" y2="38.7349" gradientUnits="userSpaceOnUse">
<stop stop-color="#F2F5FF"/>
<stop offset="0.151042" stop-color="#F8F9FE"/>
<stop offset="1" stop-color="#D6DBF1"/>
</linearGradient>
<linearGradient id="paint11_linear_139_1918" x1="20.4546" y1="35.1384" x2="22.5746" y2="38.7349" gradientUnits="userSpaceOnUse">
<stop stop-color="#F2F5FF"/>
<stop offset="0.151042" stop-color="#F8F9FE"/>
<stop offset="1" stop-color="#D6DBF1"/>
</linearGradient>
<linearGradient id="paint12_linear_139_1918" x1="20.4546" y1="29.8884" x2="22.5746" y2="33.4849" gradientUnits="userSpaceOnUse">
<stop stop-color="#F2F5FF"/>
<stop offset="0.151042" stop-color="#F8F9FE"/>
<stop offset="1" stop-color="#D6DBF1"/>
</linearGradient>
<linearGradient id="paint13_linear_139_1918" x1="40.306" y1="31.9855" x2="42.0056" y2="37.5215" gradientUnits="userSpaceOnUse">
<stop stop-color="#F2F5FF"/>
<stop offset="1" stop-color="#D6DBF1"/>
</linearGradient>
<radialGradient id="paint14_radial_139_1918" cx="0" cy="0" r="1" gradientUnits="userSpaceOnUse" gradientTransform="translate(43.001 28.336) rotate(131.532) scale(7.87524 8.18086)">
<stop stop-color="white"/>
<stop offset="1" stop-color="white" stop-opacity="0"/>
</radialGradient>
<linearGradient id="paint15_linear_139_1918" x1="43.0296" y1="29.8884" x2="45.1496" y2="33.4849" gradientUnits="userSpaceOnUse">
<stop stop-color="#F2F5FF"/>
<stop offset="0.151042" stop-color="#F8F9FE"/>
<stop offset="1" stop-color="#D6DBF1"/>
</linearGradient>
<linearGradient id="paint16_linear_139_1918" x1="43.0296" y1="35.1384" x2="45.1496" y2="38.7349" gradientUnits="userSpaceOnUse">
<stop stop-color="#F2F5FF"/>
<stop offset="0.151042" stop-color="#F8F9FE"/>
<stop offset="1" stop-color="#D6DBF1"/>
</linearGradient>
<linearGradient id="paint17_linear_139_1918" x1="38.3046" y1="35.1384" x2="40.4246" y2="38.7349" gradientUnits="userSpaceOnUse">
<stop stop-color="#F2F5FF"/>
<stop offset="0.151042" stop-color="#F8F9FE"/>
<stop offset="1" stop-color="#D6DBF1"/>
</linearGradient>
<linearGradient id="paint18_linear_139_1918" x1="38.3046" y1="29.8884" x2="40.4246" y2="33.4849" gradientUnits="userSpaceOnUse">
<stop stop-color="#F2F5FF"/>
<stop offset="0.151042" stop-color="#F8F9FE"/>
<stop offset="1" stop-color="#D6DBF1"/>
</linearGradient>
</defs>
</svg>
