<svg width="24" height="24" viewBox="0 0 24 24" fill="none" xmlns="http://www.w3.org/2000/svg">
<g id="solar:calendar-add-bold-duotone">
<path id="Vector" d="M6.96 2C7.378 2 7.716 2.31 7.716 2.692V4.09C8.386 4.078 9.138 4.078 9.984 4.078H14.016C14.862 4.078 15.613 4.078 16.284 4.09V2.692C16.284 2.31 16.622 2 17.04 2C17.458 2 17.796 2.31 17.796 2.692V4.15C19.246 4.256 20.199 4.518 20.899 5.158C21.599 5.799 21.884 6.671 22 8V9H2V8C2.116 6.671 2.401 5.8 3.101 5.158C3.801 4.518 4.753 4.256 6.204 4.15V2.692C6.204 2.31 6.543 2 6.96 2Z" fill="#FFFEFC"/>
<path id="Vector_2" opacity="0.5" d="M22 14V12C22 11.161 21.987 9.665 21.974 9H2.00599C1.99299 9.665 2.00599 11.161 2.00599 12V14C2.00599 17.771 2.00599 19.657 3.17599 20.828C4.34899 22 6.23399 22 10.004 22H14.004C17.774 22 19.658 22 20.83 20.828C22 19.657 22 17.771 22 14Z" fill="#FFFEFC"/>
<path id="Vector_3" fill-rule="evenodd" clip-rule="evenodd" d="M16 13.25C16.1989 13.25 16.3897 13.329 16.5303 13.4697C16.671 13.6103 16.75 13.8011 16.75 14V15.25H18C18.1989 15.25 18.3897 15.329 18.5303 15.4697C18.671 15.6103 18.75 15.8011 18.75 16C18.75 16.1989 18.671 16.3897 18.5303 16.5303C18.3897 16.671 18.1989 16.75 18 16.75H16.75V18C16.75 18.1989 16.671 18.3897 16.5303 18.5303C16.3897 18.671 16.1989 18.75 16 18.75C15.8011 18.75 15.6103 18.671 15.4697 18.5303C15.329 18.3897 15.25 18.1989 15.25 18V16.75H14C13.8011 16.75 13.6103 16.671 13.4697 16.5303C13.329 16.3897 13.25 16.1989 13.25 16C13.25 15.8011 13.329 15.6103 13.4697 15.4697C13.6103 15.329 13.8011 15.25 14 15.25H15.25V14C15.25 13.8011 15.329 13.6103 15.4697 13.4697C15.6103 13.329 15.8011 13.25 16 13.25Z" fill="#FFFEFC"/>
</g>
</svg>
