<svg width="193" height="42" viewBox="0 0 193 42" fill="none" xmlns="http://www.w3.org/2000/svg">
<path d="M17.28 12.2V17.896H14.4C13.2053 17.896 12.0747 18.1307 11.008 18.6C9.984 19.0267 9.06667 19.6453 8.256 20.456C7.488 21.224 6.86933 22.1413 6.4 23.208C5.97333 24.232 5.76 25.3413 5.76 26.536V40.936H0V26.536C0 24.5307 0.362667 22.6747 1.088 20.968C1.856 19.2187 2.90133 17.704 4.224 16.424C5.54667 15.1013 7.08267 14.0773 8.832 13.352C10.5813 12.584 12.4373 12.2 14.4 12.2H17.28ZM41.4655 30.824L45.4975 34.856L43.5135 36.84C42.1482 38.2053 40.5908 39.2507 38.8415 39.976C37.0922 40.7013 35.2575 41.064 33.3375 41.064C31.4175 41.064 29.5828 40.7013 27.8335 39.976C26.0842 39.2507 24.5268 38.2053 23.1615 36.84C21.7535 35.432 20.7082 33.8533 20.0255 32.104C19.3428 30.312 19.0015 28.4987 19.0015 26.664C19.0015 24.8293 19.3428 23.0373 20.0255 21.288C20.7082 19.5387 21.7535 17.96 23.1615 16.552C24.5695 15.144 26.1482 14.0987 27.8975 13.416C29.6895 12.6907 31.5028 12.328 33.3375 12.328C35.1722 12.328 36.9642 12.6907 38.7135 13.416C40.5055 14.0987 42.1055 15.144 43.5135 16.552L45.4975 18.536L29.5615 34.472C31.1828 35.2827 32.8895 35.56 34.6815 35.304C36.5162 35.0053 38.1162 34.1733 39.4815 32.808L41.4655 30.824ZM27.1935 20.52C25.4868 22.2267 24.6335 24.2747 24.6335 26.664C24.6335 27.9867 24.9322 29.2453 25.5295 30.44C26.0415 29.928 26.8095 29.16 27.8335 28.136C28.9002 27.0693 30.0095 25.96 31.1615 24.808C32.3562 23.6133 33.4868 22.4827 34.5535 21.416C35.6628 20.3493 36.5162 19.5173 37.1135 18.92C35.4922 18.1093 33.7642 17.832 31.9295 18.088C30.1375 18.344 28.5588 19.1547 27.1935 20.52Z" fill="#FFFEFC"/>
<path d="M76.2375 0.679996V26.536C76.2375 28.4987 75.8535 30.3547 75.0855 32.104C74.3602 33.8533 73.3362 35.3893 72.0135 36.712C70.7335 38.0347 69.2188 39.08 67.4695 39.848C65.7202 40.5733 63.8642 40.936 61.9015 40.936C59.9388 40.936 58.0828 40.5733 56.3335 39.848C54.5842 39.08 53.0482 38.0347 51.7255 36.712C50.4028 35.3893 49.3575 33.8533 48.5895 32.104C47.8642 30.3547 47.5015 28.4987 47.5015 26.536C47.5015 24.5307 47.8642 22.6747 48.5895 20.968C49.3575 19.2187 50.4028 17.704 51.7255 16.424C53.0482 15.1013 54.5842 14.0773 56.3335 13.352C58.0828 12.584 59.9388 12.2 61.9015 12.2H70.5415V0.679996H76.2375ZM61.9015 35.24C63.0962 35.24 64.2055 35.0267 65.2295 34.6C66.2962 34.1307 67.2135 33.512 67.9815 32.744C68.7922 31.9333 69.4108 30.9947 69.8375 29.928C70.3068 28.8613 70.5415 27.7307 70.5415 26.536V17.896H61.9015C60.7068 17.896 59.5762 18.1307 58.5095 18.6C57.4428 19.0267 56.5042 19.6453 55.6935 20.456C54.9255 21.224 54.3068 22.1413 53.8375 23.208C53.4108 24.232 53.1975 25.3413 53.1975 26.536C53.1975 27.7307 53.4108 28.8613 53.8375 29.928C54.3068 30.9947 54.9255 31.9333 55.6935 32.744C56.5042 33.512 57.4428 34.1307 58.5095 34.6C59.5762 35.0267 60.7068 35.24 61.9015 35.24ZM100.778 30.824L104.81 34.856L102.826 36.84C101.461 38.2053 99.9033 39.2507 98.154 39.976C96.4047 40.7013 94.57 41.064 92.65 41.064C90.73 41.064 88.8953 40.7013 87.146 39.976C85.3967 39.2507 83.8393 38.2053 82.474 36.84C81.066 35.432 80.0207 33.8533 79.338 32.104C78.6553 30.312 78.314 28.4987 78.314 26.664C78.314 24.8293 78.6553 23.0373 79.338 21.288C80.0207 19.5387 81.066 17.96 82.474 16.552C83.882 15.144 85.4607 14.0987 87.21 13.416C89.002 12.6907 90.8153 12.328 92.65 12.328C94.4847 12.328 96.2767 12.6907 98.026 13.416C99.818 14.0987 101.418 15.144 102.826 16.552L104.81 18.536L88.874 34.472C90.4953 35.2827 92.202 35.56 93.994 35.304C95.8287 35.0053 97.4287 34.1733 98.794 32.808L100.778 30.824ZM86.506 20.52C84.7993 22.2267 83.946 24.2747 83.946 26.664C83.946 27.9867 84.2447 29.2453 84.842 30.44C85.354 29.928 86.122 29.16 87.146 28.136C88.2127 27.0693 89.322 25.96 90.474 24.808C91.6687 23.6133 92.7993 22.4827 93.866 21.416C94.9753 20.3493 95.8287 19.5173 96.426 18.92C94.8047 18.1093 93.0767 17.832 91.242 18.088C89.45 18.344 87.8713 19.1547 86.506 20.52ZM106.75 26.6C106.75 24.5947 107.113 22.7387 107.838 21.032C108.606 19.2827 109.63 17.768 110.91 16.488C112.233 15.1653 113.769 14.1413 115.518 13.416C117.267 12.648 119.123 12.264 121.086 12.264C123.091 12.264 124.947 12.648 126.654 13.416C128.403 14.1413 129.939 15.1653 131.262 16.488C132.585 17.768 133.609 19.2827 134.334 21.032C135.102 22.7387 135.486 24.5947 135.486 26.6V41H129.79V26.6C129.79 25.4053 129.555 24.296 129.086 23.272C128.659 22.2053 128.041 21.288 127.23 20.52C126.462 19.7093 125.545 19.0907 124.478 18.664C123.411 18.1947 122.281 17.96 121.086 17.96C119.891 17.96 118.761 18.1947 117.694 18.664C116.67 19.0907 115.753 19.7093 114.942 20.52C114.174 21.288 113.555 22.2053 113.086 23.272C112.659 24.296 112.446 25.4053 112.446 26.6V41H106.75V26.6ZM154.591 35.24V40.936H151.775C149.812 40.936 147.956 40.5733 146.207 39.848C144.458 39.08 142.922 38.0347 141.599 36.712C140.276 35.3893 139.231 33.8533 138.463 32.104C137.738 30.3547 137.375 28.4987 137.375 26.536V0.679996H143.071V17.96H154.591V23.656H143.071V26.536C143.071 27.7307 143.284 28.8613 143.711 29.928C144.18 30.9947 144.799 31.9333 145.567 32.744C146.378 33.512 147.316 34.1307 148.383 34.6C149.45 35.0267 150.58 35.24 151.775 35.24H154.591ZM170.961 12.2C172.966 12.2 174.822 12.584 176.529 13.352C178.278 14.0773 179.793 15.1013 181.073 16.424C182.396 17.704 183.42 19.2187 184.145 20.968C184.913 22.6747 185.297 24.5307 185.297 26.536V40.936H170.961C168.998 40.936 167.142 40.5733 165.393 39.848C163.644 39.08 162.108 38.0347 160.785 36.712C159.462 35.3893 158.417 33.8533 157.649 32.104C156.924 30.3547 156.561 28.4987 156.561 26.536C156.561 24.5307 156.924 22.6747 157.649 20.968C158.417 19.2187 159.462 17.704 160.785 16.424C162.108 15.1013 163.644 14.0773 165.393 13.352C167.142 12.584 168.998 12.2 170.961 12.2ZM179.601 35.24V26.536C179.601 25.3413 179.366 24.232 178.897 23.208C178.47 22.1413 177.852 21.224 177.041 20.456C176.273 19.6453 175.356 19.0267 174.289 18.6C173.265 18.1307 172.156 17.896 170.961 17.896C169.766 17.896 168.636 18.1307 167.569 18.6C166.502 19.0267 165.564 19.6453 164.753 20.456C163.985 21.224 163.366 22.1413 162.897 23.208C162.47 24.232 162.257 25.3413 162.257 26.536C162.257 27.7307 162.47 28.8613 162.897 29.928C163.366 30.9947 163.985 31.9333 164.753 32.744C165.564 33.512 166.502 34.1307 167.569 34.6C168.636 35.0267 169.766 35.24 170.961 35.24H179.601ZM187.002 0.679996H192.698V40.936H187.002V0.679996Z" fill="#47A061"/>
</svg>
