<svg width="32" height="32" viewBox="0 0 32 32" fill="none" xmlns="http://www.w3.org/2000/svg">
<g id="solar:map-point-wave-bold-duotone">
<path id="Vector" opacity="0.5" d="M26.2893 27.1493C28.1907 26.1133 29.3333 24.7827 29.3333 23.3333C29.3333 21.7973 28.0493 20.3947 25.9387 19.3333C23.4973 18.1067 19.9493 17.3333 16 17.3333C12.0507 17.3333 8.50266 18.1067 6.06133 19.3333C3.95066 20.3947 2.66666 21.7973 2.66666 23.3333C2.66666 24.8693 3.95066 26.272 6.06133 27.3333C8.50266 28.56 12.0507 29.3333 16 29.3333C20.1427 29.3333 23.8427 28.484 26.2893 27.1493Z" fill="#FFFEFC"/>
<path id="Vector_2" fill-rule="evenodd" clip-rule="evenodd" d="M6.66666 11.3533C6.66666 6.556 10.8453 2.66666 16 2.66666C21.1547 2.66666 25.3333 6.556 25.3333 11.3533C25.3333 16.1133 22.3547 21.6667 17.7067 23.6533C17.1668 23.8824 16.5864 24.0004 16 24.0004C15.4136 24.0004 14.8332 23.8824 14.2933 23.6533C9.64533 21.6667 6.66666 16.112 6.66666 11.3533ZM16 14.6667C16.7072 14.6667 17.3855 14.3857 17.8856 13.8856C18.3857 13.3855 18.6667 12.7072 18.6667 12C18.6667 11.2928 18.3857 10.6145 17.8856 10.1144C17.3855 9.61428 16.7072 9.33333 16 9.33333C15.2928 9.33333 14.6145 9.61428 14.1144 10.1144C13.6143 10.6145 13.3333 11.2928 13.3333 12C13.3333 12.7072 13.6143 13.3855 14.1144 13.8856C14.6145 14.3857 15.2928 14.6667 16 14.6667Z" fill="#FFFEFC"/>
</g>
</svg>
