<svg width="64" height="64" viewBox="0 0 64 64" fill="none" xmlns="http://www.w3.org/2000/svg">
<circle cx="32" cy="32" r="32" fill="#25452D"/>
<circle cx="32" cy="32" r="12.5" stroke="#FFFEFC" stroke-opacity="0.1" stroke-width="21" stroke-dasharray="2 2"/>
<path fill-rule="evenodd" clip-rule="evenodd" d="M34.9089 21.2304C33.1649 21.9775 30.6479 21.9775 28.904 21.2303C27.487 20.6233 25.9021 20.567 24.4396 21.2031C21.3528 22.5458 19.9687 26.4701 21.3132 30.0095L21.3124 30.0099L23.5137 35.5575L25.581 43.7074C25.8112 44.6149 26.6247 45.25 27.5568 45.25C28.5579 45.25 29.4109 44.5198 29.5699 43.5268L30.5076 37.6677C30.618 36.9776 31.2108 36.4702 31.9065 36.4702C32.6022 36.4702 33.1949 36.9776 33.3054 37.6677L34.2431 43.5268C34.402 44.5198 35.255 45.25 36.2562 45.25C37.1883 45.25 38.0017 44.6149 38.2319 43.7074L40.2993 35.5575L42.5005 30.0099L42.4997 30.0095C43.8443 26.4701 42.4601 22.5458 39.3733 21.2031C37.9109 20.567 36.3259 20.6233 34.9089 21.2304Z" fill="url(#paint0_linear_513_3990)"/>
<mask id="mask0_513_3990" style="mask-type:alpha" maskUnits="userSpaceOnUse" x="21" y="23" width="23" height="23">
<path fill-rule="evenodd" clip-rule="evenodd" d="M21.3555 30.1181L23.5138 35.5575L25.5811 43.7074C25.8113 44.6149 26.6248 45.25 27.5569 45.25C28.558 45.25 29.411 44.5198 29.57 43.5268L30.5077 37.6677C30.6182 36.9776 31.2109 36.4702 31.9066 36.4702C32.6023 36.4702 33.195 36.9776 33.3055 37.6677L34.2432 43.5268C34.4021 44.5198 35.2552 45.25 36.2563 45.25C37.1884 45.25 38.0019 44.6149 38.232 43.7074L40.2994 35.5575L42.5007 30.0099L42.4998 30.0095C43.384 27.682 43.0882 25.1881 41.9043 23.3713L21.3555 30.1181Z" fill="url(#paint1_linear_513_3990)"/>
</mask>
<g mask="url(#mask0_513_3990)">
<rect x="18" y="23.3711" width="27.1337" height="23.6292" fill="url(#paint2_linear_513_3990)"/>
<g filter="url(#filter0_f_513_3990)">
<path d="M35.1649 32.8566C36.4214 33.2941 37.7974 32.6489 38.2646 31.4031L39.8286 27.2324L41.4812 23.5508L22.3066 29.842C24.2049 29.5426 26.1478 29.7167 27.9626 30.3486L35.1649 32.8566Z" fill="url(#paint3_linear_513_3990)" fill-opacity="0.17"/>
</g>
<g filter="url(#filter1_f_513_3990)">
<path d="M30.9458 31.5217C35.3011 33.1404 40.0125 30.2124 40.4895 25.5906C40.52 25.2955 40.6184 25.0114 40.7771 24.7607L41.9483 22.9102L41.4812 23.5503L22.3066 29.8414L22.4793 29.8142C24.2618 29.5331 26.0867 29.7157 27.7782 30.3444L30.9458 31.5217Z" fill="url(#paint4_linear_513_3990)" fill-opacity="0.17"/>
</g>
<g filter="url(#filter2_f_513_3990)">
<path d="M34.6929 32.9142C37.123 33.8174 39.741 32.1392 39.9349 29.5539C40.0211 28.4047 40.2776 27.2746 40.6959 26.2007L41.4706 24.2118C41.6779 23.6798 41.1069 23.1796 40.6068 23.4552L22.3066 29.8413L23.7944 29.6066C24.7147 29.4615 25.6569 29.5558 26.5302 29.8804L34.6929 32.9142Z" fill="url(#paint5_linear_513_3990)" fill-opacity="0.17"/>
</g>
<path d="M38.8366 28.409C38.0181 30.2589 35.9973 31.2625 34.0288 30.7967L29.9885 29.8407C27.1691 29.3001 24.2658 29.3821 21.4814 30.0808L41.9213 23.3643C41.2863 23.5729 40.7695 24.0409 40.499 24.6521L38.8366 28.409Z" fill="url(#paint6_linear_513_3990)"/>
</g>
<defs>
<filter id="filter0_f_513_3990" x="21.3066" y="22.5508" width="21.1748" height="11.4427" filterUnits="userSpaceOnUse" color-interpolation-filters="sRGB">
<feFlood flood-opacity="0" result="BackgroundImageFix"/>
<feBlend mode="normal" in="SourceGraphic" in2="BackgroundImageFix" result="shape"/>
<feGaussianBlur stdDeviation="0.5" result="effect1_foregroundBlur_513_3990"/>
</filter>
<filter id="filter1_f_513_3990" x="17.3066" y="17.9102" width="29.6416" height="19.0614" filterUnits="userSpaceOnUse" color-interpolation-filters="sRGB">
<feFlood flood-opacity="0" result="BackgroundImageFix"/>
<feBlend mode="normal" in="SourceGraphic" in2="BackgroundImageFix" result="shape"/>
<feGaussianBlur stdDeviation="2.5" result="effect1_foregroundBlur_513_3990"/>
</filter>
<filter id="filter2_f_513_3990" x="17.3066" y="18.377" width="29.208" height="19.7841" filterUnits="userSpaceOnUse" color-interpolation-filters="sRGB">
<feFlood flood-opacity="0" result="BackgroundImageFix"/>
<feBlend mode="normal" in="SourceGraphic" in2="BackgroundImageFix" result="shape"/>
<feGaussianBlur stdDeviation="2.5" result="effect1_foregroundBlur_513_3990"/>
</filter>
<linearGradient id="paint0_linear_513_3990" x1="20.7996" y1="14.625" x2="31.9996" y2="35.625" gradientUnits="userSpaceOnUse">
<stop stop-color="#F6F1E8"/>
<stop offset="1" stop-color="#D8B682"/>
</linearGradient>
<linearGradient id="paint1_linear_513_3990" x1="23.7898" y1="20.7506" x2="37.0678" y2="44.4607" gradientUnits="userSpaceOnUse">
<stop stop-color="#F1F7FA"/>
<stop offset="1" stop-color="#CFE0F3"/>
</linearGradient>
<linearGradient id="paint2_linear_513_3990" x1="27.2843" y1="27.1768" x2="35.4724" y2="44.7849" gradientUnits="userSpaceOnUse">
<stop stop-color="#F0F6FA"/>
<stop offset="1" stop-color="#CEE0F3"/>
</linearGradient>
<linearGradient id="paint3_linear_513_3990" x1="35.0662" y1="26.3188" x2="36.7564" y2="34.488" gradientUnits="userSpaceOnUse">
<stop stop-color="#134980"/>
<stop offset="1" stop-color="#236BB4" stop-opacity="0"/>
</linearGradient>
<linearGradient id="paint4_linear_513_3990" x1="35.0662" y1="26.3183" x2="36.7564" y2="34.4875" gradientUnits="userSpaceOnUse">
<stop stop-color="#134980"/>
<stop offset="1" stop-color="#236BB4" stop-opacity="0"/>
</linearGradient>
<linearGradient id="paint5_linear_513_3990" x1="35.0662" y1="26.3181" x2="36.7564" y2="34.4873" gradientUnits="userSpaceOnUse">
<stop stop-color="#134980"/>
<stop offset="1" stop-color="#236BB4" stop-opacity="0"/>
</linearGradient>
<linearGradient id="paint6_linear_513_3990" x1="33.9283" y1="30.9283" x2="32.3311" y2="26.5125" gradientUnits="userSpaceOnUse">
<stop stop-color="#F4F8FB"/>
<stop offset="0.651561" stop-color="white"/>
<stop offset="1" stop-color="#F9F6F2"/>
</linearGradient>
</defs>
</svg>
