<svg width="64" height="64" viewBox="0 0 64 64" fill="none" xmlns="http://www.w3.org/2000/svg">
<circle cx="32" cy="32" r="32" fill="#25452D"/>
<path d="M21.5 29L31.5 26.5L49.5 36L31.5 38L17 36L21.5 29Z" fill="#FFFEFC"/>
<path fill-rule="evenodd" clip-rule="evenodd" d="M38.7889 20.1449C41.6631 20.8006 48.7812 31.9898 50.896 35.4048C50.935 35.4678 50.9535 35.5331 50.9554 35.5963C51.0261 35.7364 51.0167 35.9168 50.8986 36.0537C50.6631 36.3268 50.4181 36.6157 50.164 36.9153C47.6548 39.8744 44.2652 43.8718 40.4551 43.8718C38.8697 43.8718 37.5681 43.5981 36.2614 43.3233C34.9446 43.0463 33.6227 42.7683 32 42.7683C30.3773 42.7683 29.0554 43.0463 27.7386 43.3233C26.4319 43.5981 25.1303 43.8718 23.5449 43.8718C19.7348 43.8718 16.3452 39.8744 13.836 36.9153C13.582 36.6158 13.3368 36.3267 13.1014 36.0537C12.9834 35.9169 12.9739 35.7367 13.0443 35.5967C13.0461 35.5334 13.0646 35.4679 13.1038 35.4047C15.2188 31.9894 22.337 20.8006 25.2111 20.1449C27.1446 19.7038 28.2128 20.3515 29.267 20.9907C30.0636 21.4737 30.8522 21.9519 32 21.9519C33.1479 21.9519 33.9365 21.4737 34.733 20.9907C35.7873 20.3515 36.8554 19.7038 38.7889 20.1449ZM17.3624 34.8637C20.2286 34.5197 23.7127 34.1612 25.783 34.1612C27.9494 34.1612 29.4768 34.4665 30.4858 34.8278C31.3417 35.1343 32.6583 35.1343 33.5142 34.8278C34.5231 34.4666 36.0506 34.1612 38.217 34.1612C40.2873 34.1612 43.7715 34.5197 46.6377 34.8637C44.5583 34.1288 41.9084 32.7146 39.3939 31.3726C36.2674 29.704 33.3504 28.1472 32 28.1472C30.6497 28.1472 27.7327 29.704 24.6062 31.3726C22.0917 32.7146 19.4418 34.1288 17.3624 34.8637Z" fill="url(#paint0_linear_513_3996)"/>
<defs>
<linearGradient id="paint0_linear_513_3996" x1="32.0001" y1="34.1612" x2="32.0001" y2="43.8718" gradientUnits="userSpaceOnUse">
<stop stop-color="#C87E79"/>
<stop offset="1" stop-color="#ECB5B3"/>
</linearGradient>
</defs>
</svg>
