<svg width="64" height="64" viewBox="0 0 64 64" fill="none" xmlns="http://www.w3.org/2000/svg">
<circle cx="32" cy="32" r="32" fill="#25452D"/>
<path fill-rule="evenodd" clip-rule="evenodd" d="M36.3639 14.3455C33.7479 15.4663 29.9724 15.4663 27.3564 14.3455C25.231 13.4349 22.8536 13.3505 20.6599 14.3047C16.0297 16.3187 13.9535 22.2051 15.9703 27.5143L15.9691 27.5148L19.271 35.8362L22.372 48.0612C22.7173 49.4224 23.9375 50.375 25.3357 50.375C26.8373 50.375 28.1169 49.2797 28.3553 47.7902L29.7619 39.0015C29.9275 37.9664 30.8167 37.2053 31.8602 37.2053C32.9037 37.2053 33.7929 37.9665 33.9585 39.0015L35.3651 47.7902C35.6035 49.2797 36.883 50.375 38.3847 50.375C39.7829 50.375 41.0031 49.4224 41.3484 48.0612L44.4494 35.8362L47.7513 27.5148L47.7501 27.5143C49.7669 22.2051 47.6907 16.3187 43.0605 14.3047C40.8668 13.3505 38.4893 13.4349 36.3639 14.3455Z" fill="url(#paint0_linear_513_3980)"/>
<path fill-rule="evenodd" clip-rule="evenodd" d="M32.3976 15.1755C32.4039 15.5866 32.2502 15.9996 31.9365 16.3133L30.4889 17.7609C29.8738 18.376 29.8738 19.3732 30.4889 19.9883L31.9365 21.4359C32.5516 22.051 32.5516 23.0482 31.9365 23.6633L30.4889 25.1109C29.8738 25.726 29.8738 26.7232 30.4889 27.3383L31.9365 28.7859C32.5516 29.401 32.5516 30.3982 31.9365 31.0133L30.4889 32.4609C29.8738 33.076 29.8738 34.0732 30.4889 34.6883L32.0083 36.2077C32.3079 36.5073 32.4626 36.8995 32.4694 37.2946C32.2758 37.2364 32.0711 37.2053 31.8602 37.2053C30.8167 37.2053 29.9275 37.9664 29.7619 39.0015L28.3553 47.7902C28.1169 49.2797 26.8373 50.375 25.3357 50.375C23.9375 50.375 22.7173 49.4224 22.372 48.0611L19.271 35.8362L15.9691 27.5148L15.9703 27.5143C13.9535 22.2051 16.0297 16.3187 20.6599 14.3047C22.8536 13.3505 25.231 13.4349 27.3564 14.3455C28.8112 14.9688 30.6245 15.2454 32.3976 15.1755Z" fill="url(#paint1_linear_513_3980)"/>
<defs>
<linearGradient id="paint0_linear_513_3980" x1="19.6102" y1="13.625" x2="39.7002" y2="48.905" gradientUnits="userSpaceOnUse">
<stop stop-color="#EBF4F8"/>
<stop offset="1" stop-color="#D0E0F3"/>
</linearGradient>
<linearGradient id="paint1_linear_513_3980" x1="19.6102" y1="13.625" x2="39.7002" y2="48.905" gradientUnits="userSpaceOnUse">
<stop stop-color="#F7F5EF"/>
<stop offset="1" stop-color="#D0A768"/>
</linearGradient>
</defs>
</svg>
