<svg width="64" height="64" viewBox="0 0 64 64" fill="none" xmlns="http://www.w3.org/2000/svg">
<circle cx="32" cy="32" r="32" fill="#25452D"/>
<g opacity="0.9" clip-path="url(#clip0_513_4004)">
<path d="M14.0234 26.9998C15.6901 25.1664 19.8234 21.5998 23.0234 21.9998C27.0234 22.4998 29.0234 26.9998 33.5234 26.9998C38.0234 26.9998 38.5234 21.9998 43.5234 21.9998C48.5234 21.9998 47.0234 26.9998 51.5234 26.9998M4.02344 26.9998C5.1901 28.8332 8.42344 32.5 12.0234 32.5C16.5234 32.5 18.5234 26.9998 23.0234 26.9998C27.5234 26.9998 29.5234 32.5 33.5234 32.5C37.5234 32.5 39.0234 25.4996 43.5234 26.9998" stroke="#0B1617"/>
<path d="M14.0234 38.031C15.6901 36.1977 19.8234 32.631 23.0234 33.031C27.0234 33.531 29.0234 38.031 33.5234 38.031C38.0234 38.031 38.5234 33.031 43.5234 33.031C48.5234 33.031 47.0234 38.031 51.5234 38.031M4.02344 38.031C5.1901 39.8644 8.42344 43.5312 12.0234 43.5312C16.5234 43.5312 18.5234 38.031 23.0234 38.031C27.5234 38.031 29.5234 43.5312 33.5234 43.5312C37.5234 43.5312 39.0234 36.5308 43.5234 38.031" stroke="#0B1617"/>
<path d="M14 39.031C15.6667 37.1977 19.8 33.631 23 34.031C27 34.531 29 39.031 33.5 39.031C38 39.031 38.5 34.031 43.5 34.031C48.5 34.031 47 39.031 51.5 39.031M4 39.031C5.16667 40.8644 8.4 44.5312 12 44.5312C16.5 44.5312 18.5 39.031 23 39.031C27.5 39.031 29.5 44.5312 33.5 44.5312C37.5 44.5312 39 37.5308 43.5 39.031" stroke="#FFFEFC" stroke-width="0.5"/>
<path d="M14 28.031C15.6667 26.1977 19.8 22.631 23 23.031C27 23.531 29 28.031 33.5 28.031C38 28.031 38.5 23.031 43.5 23.031C48.5 23.031 47 28.031 51.5 28.031M4 28.031C5.16667 29.8644 8.4 33.5312 12 33.5312C16.5 33.5312 18.5 28.031 23 28.031C27.5 28.031 29.5 33.5312 33.5 33.5312C37.5 33.5312 39 26.5308 43.5 28.031" stroke="#FFFEFC" stroke-width="0.5"/>
<circle cx="33.0234" cy="19" r="2.5" stroke="#47A061"/>
<circle cx="22.5234" cy="43.5" r="2" stroke="#47A061"/>
<circle cx="42.0234" cy="44" r="1.5" stroke="#47A061"/>
<circle cx="48" cy="30" r="1.5" stroke="#47A061"/>
</g>
<defs>
<clipPath id="clip0_513_4004">
<rect width="40" height="35" fill="white" transform="translate(12 16)"/>
</clipPath>
</defs>
</svg>
