<svg width="64" height="64" viewBox="0 0 64 64" fill="none" xmlns="http://www.w3.org/2000/svg">
<circle cx="32" cy="32" r="32" fill="#25452D"/>
<path fill-rule="evenodd" clip-rule="evenodd" d="M36.3639 14.3455C33.7479 15.4663 29.9724 15.4663 27.3564 14.3455C25.231 13.4349 22.8536 13.3505 20.6599 14.3047C16.0306 16.3183 13.9543 22.2028 15.9691 27.5112C15.9696 27.5123 15.9696 27.5136 15.9691 27.5148L16.5978 28.882C18.7233 33.5037 20.3254 38.3484 21.3742 43.3261L22.372 48.0612C22.7173 49.4224 23.9375 50.375 25.3357 50.375C26.8373 50.375 28.1169 49.2797 28.3553 47.7902L29.7619 39.0015C29.9275 37.9664 30.8167 37.2053 31.8602 37.2053C32.9037 37.2053 33.7929 37.9665 33.9585 39.0015L35.3651 47.7902C35.6035 49.2797 36.883 50.375 38.3847 50.375C39.7829 50.375 41.0031 49.4224 41.3484 48.0612L42.3461 43.3261C43.395 38.3484 44.9971 33.5037 47.1225 28.882L47.7513 27.5148C47.7508 27.5136 47.7508 27.5123 47.7512 27.5112C49.7661 22.2028 47.6898 16.3183 43.0605 14.3047C40.8668 13.3505 38.4893 13.4349 36.3639 14.3455Z" fill="url(#paint0_linear_513_3985)"/>
<mask id="mask0_513_3985" style="mask-type:alpha" maskUnits="userSpaceOnUse" x="15" y="13" width="34" height="38">
<path fill-rule="evenodd" clip-rule="evenodd" d="M36.3639 14.3455C33.7479 15.4663 29.9724 15.4663 27.3564 14.3455C25.231 13.4349 22.8536 13.3505 20.6599 14.3047C16.0306 16.3183 13.9543 22.2028 15.9691 27.5112C15.9696 27.5123 15.9696 27.5136 15.9691 27.5148L16.5978 28.882C18.7233 33.5037 20.3254 38.3484 21.3742 43.3261L22.372 48.0612C22.7173 49.4224 23.9375 50.375 25.3357 50.375C26.8373 50.375 28.1169 49.2797 28.3553 47.7902L29.7619 39.0015C29.9275 37.9664 30.8167 37.2053 31.8602 37.2053C32.9037 37.2053 33.7929 37.9665 33.9585 39.0015L35.3651 47.7902C35.6035 49.2797 36.883 50.375 38.3847 50.375C39.7829 50.375 41.0031 49.4224 41.3484 48.0612L42.3461 43.3261C43.395 38.3484 44.9971 33.5037 47.1225 28.882L47.7513 27.5148C47.7508 27.5136 47.7508 27.5123 47.7512 27.5112C49.7661 22.2028 47.6898 16.3183 43.0605 14.3047C40.8668 13.3505 38.4893 13.4349 36.3639 14.3455Z" fill="url(#paint1_linear_513_3985)"/>
</mask>
<g mask="url(#mask0_513_3985)">
<path d="M26.7501 18.3199C26.7501 17.7782 26.3095 17.3498 25.7938 17.1842C24.4104 16.7399 23.4092 15.4428 23.4092 13.9118V13.339C23.4092 11.7575 24.6913 12.0504 26.2728 12.0504C27.1059 12.0504 27.8558 12.4061 28.3791 12.9739C29.3211 12.0764 30.5963 11.5254 32.0001 11.5254C33.4039 11.5254 34.6791 12.6014 35.6211 13.4989C36.1443 12.9311 36.8943 12.5754 37.7274 12.5754C39.3089 12.5754 40.591 13.8575 40.591 15.439V16.0118C40.591 17.7149 39.352 19.1286 37.7262 19.4008C37.4635 19.4448 37.2501 19.659 37.2501 19.9254C37.2501 22.8249 34.8996 25.1754 32.0001 25.1754C29.1006 25.1754 26.7501 22.8249 26.7501 19.9254V18.3199Z" fill="url(#paint2_linear_513_3985)"/>
</g>
<defs>
<linearGradient id="paint0_linear_513_3985" x1="19.6102" y1="13.625" x2="39.7002" y2="48.905" gradientUnits="userSpaceOnUse">
<stop stop-color="#F0F6F9"/>
<stop offset="1" stop-color="#CDDFF2"/>
</linearGradient>
<linearGradient id="paint1_linear_513_3985" x1="19.6102" y1="13.625" x2="39.7002" y2="48.905" gradientUnits="userSpaceOnUse">
<stop stop-color="#F0F6F9"/>
<stop offset="1" stop-color="#CDDFF2"/>
</linearGradient>
<linearGradient id="paint2_linear_513_3985" x1="39.1592" y1="11.1913" x2="33.5362" y2="33.4892" gradientUnits="userSpaceOnUse">
<stop stop-color="#E6F0F8"/>
<stop offset="1" stop-color="#6F93BA"/>
</linearGradient>
</defs>
</svg>
