<svg width="32" height="32" viewBox="0 0 32 32" fill="none" xmlns="http://www.w3.org/2000/svg">
<g id="solar:map-bold-duotone">
<path id="Vector" opacity="0.5" d="M4 11.6133V22.4507C4 23.8413 4 24.5373 4.37733 25.0613C4.75467 25.5853 5.41467 25.8053 6.73467 26.2453L8.288 26.7627C10.1107 27.3707 11.0213 27.6747 11.94 27.5507L12 27.5427V8.87601C11.8498 8.89838 11.6984 8.91218 11.5467 8.91734C10.8267 8.94267 10.1147 8.70401 8.692 8.23067C6.828 7.60934 5.896 7.29867 5.18667 7.61467C4.9353 7.72651 4.70971 7.88901 4.524 8.09201C4 8.66667 4 9.64801 4 11.6133ZM28 20.3867V9.55067C28 8.16001 28 7.46401 27.6227 6.94001C27.2453 6.41601 26.5853 6.19601 25.2653 5.75601L23.712 5.23867C21.8893 4.63067 20.9787 4.32667 20.06 4.45067L20 4.45734V23.124C20.1507 23.1013 20.3027 23.088 20.4533 23.0827C21.1733 23.0573 21.8853 23.296 23.308 23.7693C25.172 24.3907 26.104 24.7013 26.8133 24.3853C27.0647 24.2735 27.2903 24.111 27.476 23.908C28 23.3333 28 22.352 28 20.3867Z" fill="#47A061"/>
<path id="Vector_2" d="M12.3293 8.81352C12.2202 8.83774 12.1104 8.85864 12 8.87619V27.5429C12.8933 27.4042 13.692 26.8722 15.256 25.8295L17.0987 24.6002C18.3467 23.7682 18.9707 23.3522 19.672 23.1869C19.7787 23.1602 19.8893 23.1402 20 23.1242V4.45752C19.1067 4.59485 18.308 5.12819 16.744 6.16952L14.9013 7.39885C13.6533 8.23085 13.0293 8.64685 12.328 8.81219" fill="#47A061"/>
</g>
</svg>
