<svg width="32" height="32" viewBox="0 0 32 32" fill="none" xmlns="http://www.w3.org/2000/svg">
<g id="solar:phone-calling-bold-duotone">
<path id="Vector" opacity="0.5" d="M20.7413 19.3974L20.1347 20.0374C20.1347 20.0374 18.6907 21.5561 14.7507 17.4081C10.8107 13.2601 12.2547 11.7414 12.2547 11.7414L12.6373 11.3374C13.5787 10.3454 13.668 8.7534 12.8453 7.59073L11.1653 5.2134C10.1467 3.7734 8.18001 3.58406 7.01334 4.81206L4.92134 7.0134C4.34401 7.62273 3.95734 8.41073 4.00401 9.28673C4.12401 11.5267 5.08134 16.3441 10.42 21.9667C16.0827 27.9267 21.396 28.1641 23.568 27.9494C24.256 27.8827 24.8533 27.5107 25.3347 27.0041L27.228 25.0094C28.508 23.6627 28.148 21.3561 26.5107 20.4147L23.964 18.9481C22.8893 18.3307 21.5813 18.5121 20.7413 19.3961" fill="#47A061"/>
<path id="Vector_2" d="M17.68 2.5065C17.7229 2.24477 17.8678 2.01073 18.083 1.85575C18.2983 1.70077 18.5662 1.6375 18.828 1.67983C18.8613 1.6865 18.9707 1.7065 19.028 1.71983C19.1413 1.74383 19.3 1.78383 19.4973 1.83983C19.8933 1.95583 20.4467 2.1465 21.1107 2.4505C22.4387 3.05983 24.2053 4.12517 26.04 5.9585C27.8747 7.79317 28.94 9.56117 29.5493 10.8892C29.8533 11.5532 30.0427 12.1052 30.1587 12.5025C30.2171 12.7021 30.2674 12.9041 30.3093 13.1078L30.316 13.1492C30.3599 13.4132 30.2983 13.6839 30.1444 13.9029C29.9905 14.1219 29.7566 14.2717 29.4933 14.3198C29.2323 14.3622 28.965 14.2995 28.7501 14.1453C28.5352 13.9911 28.3901 13.7581 28.3467 13.4972C28.3194 13.3498 28.2833 13.2042 28.2387 13.0612C28.1024 12.6033 27.9331 12.1559 27.732 11.7225C27.212 10.5892 26.276 9.02384 24.6253 7.37317C22.976 5.7225 21.4107 4.78783 20.276 4.26783C19.8431 4.06679 19.3961 3.89746 18.9387 3.76117C18.7984 3.72159 18.657 3.68602 18.5147 3.6545C18.2528 3.6109 18.0185 3.46611 17.8623 3.25136C17.7062 3.03661 17.6407 2.76909 17.68 2.5065Z" fill="#47A061"/>
<path id="Vector_3" fill-rule="evenodd" clip-rule="evenodd" d="M17.9813 7.10669C18.0173 6.98034 18.0778 6.86231 18.1594 6.75935C18.2409 6.65639 18.342 6.57051 18.4568 6.50661C18.5716 6.44272 18.6978 6.40207 18.8283 6.38699C18.9588 6.3719 19.091 6.38267 19.2173 6.41869L19.2213 6.42003L19.2253 6.42136L19.236 6.42403L19.2627 6.43203L19.3373 6.45869C19.6917 6.59521 20.0338 6.76158 20.36 6.95603C21.012 7.34269 21.9027 7.98269 22.9493 9.03069C23.996 10.0774 24.6373 10.968 25.024 11.62C25.2173 11.9467 25.3453 12.212 25.428 12.4067C25.4723 12.5085 25.5124 12.6122 25.548 12.7174L25.5547 12.744L25.5587 12.7547V12.7587L25.56 12.76C25.56 12.76 25.56 12.7627 24.6 13.0374L25.56 12.7627C25.6277 13.015 25.594 13.2838 25.4661 13.5115C25.3382 13.7393 25.1263 13.908 24.8756 13.9815C24.6249 14.055 24.3554 14.0275 24.1248 13.9049C23.8941 13.7823 23.7206 13.5743 23.6413 13.3254L23.6373 13.312C23.5436 13.0798 23.4321 12.8552 23.304 12.64C23.0053 12.1374 22.468 11.3774 21.5347 10.444C20.6013 9.51069 19.8427 8.97469 19.34 8.67736C19.1249 8.54918 18.9002 8.43774 18.668 8.34403L18.6547 8.33869C18.4028 8.26297 18.1909 8.09107 18.0649 7.86022C17.9388 7.62938 17.9088 7.35951 17.9813 7.10669Z" fill="#47A061"/>
</g>
</svg>
