<svg width="24" height="25" viewBox="0 0 24 25" fill="none" xmlns="http://www.w3.org/2000/svg">
<g id="uim:facebook">
<path id="Vector" opacity="0.5" d="M12.683 22.4998V14.7548H10.076V11.7368H12.683V9.50978C12.6302 8.98204 12.6934 8.44911 12.8682 7.94837C13.043 7.44762 13.3253 6.99118 13.6952 6.61103C14.065 6.23088 14.5135 5.93622 15.0093 5.74772C15.5051 5.55921 16.0361 5.48141 16.5651 5.51978C17.343 5.51693 18.1205 5.55666 18.894 5.63878V8.33878H17.295C16.042 8.33878 15.8 8.93478 15.8 9.80878V11.7358H18.789L18.399 14.7538H15.799V22.4998H12.683Z" fill="#47A061"/>
<path id="Vector_2" d="M20.999 2.5H2.99805C2.73283 2.5 2.47848 2.60536 2.29094 2.79289C2.1034 2.98043 1.99805 3.23478 1.99805 3.5V21.501C1.99805 21.7662 2.1034 22.0206 2.29094 22.2081C2.47848 22.3956 2.73283 22.501 2.99805 22.501H20.999C21.2643 22.501 21.5186 22.3956 21.7062 22.2081C21.8937 22.0206 21.999 21.7662 21.999 21.501V3.5C21.999 3.23478 21.8937 2.98043 21.7062 2.79289C21.5186 2.60536 21.2643 2.5 20.999 2.5ZM18.894 8.34H17.295C16.042 8.34 15.8 8.936 15.8 9.81V11.736H18.789L18.399 14.755H15.799V22.5H12.683V14.755H10.076V11.736H12.683V9.51C12.6302 8.98225 12.6934 8.44933 12.8682 7.94859C13.043 7.44784 13.3253 6.9914 13.6951 6.61124C14.065 6.23109 14.5135 5.93644 15.0093 5.74793C15.5051 5.55942 16.036 5.48163 16.565 5.52C17.343 5.51758 18.1205 5.55764 18.894 5.64V8.34Z" fill="#47A061"/>
</g>
</svg>
