<svg width="24" height="25" viewBox="0 0 24 25" fill="none" xmlns="http://www.w3.org/2000/svg">
<g id="uim:instagram-alt">
<path id="Vector" opacity="0.5" d="M20.936 8.064C20.9284 7.36772 20.8009 6.67796 20.559 6.025C20.3832 5.54791 20.1027 5.11632 19.738 4.762C19.3836 4.39765 18.952 4.11743 18.475 3.942C17.8219 3.70043 17.1323 3.57258 16.436 3.564C15.278 3.512 14.931 3.5 12 3.5C9.07 3.5 8.721 3.51 7.564 3.564C6.86772 3.57159 6.17796 3.69912 5.525 3.941C5.04776 4.11648 4.6161 4.39707 4.262 4.762C3.89823 5.11724 3.61812 5.54902 3.442 6.026C3.20058 6.67877 3.07274 7.36807 3.064 8.064C3.012 9.223 3 9.57 3 12.501C3 15.432 3.01 15.78 3.064 16.937C3.07191 17.6333 3.19978 18.3231 3.442 18.976C3.617 19.452 3.898 19.884 4.263 20.237C4.61743 20.6018 5.04897 20.8826 5.526 21.059C6.178 21.301 6.868 21.429 7.564 21.436C8.721 21.49 9.07 21.5 12 21.5C14.93 21.5 15.28 21.49 16.436 21.436C17.1323 21.4284 17.822 21.3009 18.475 21.059C18.9485 20.8765 19.3786 20.5969 19.7375 20.2381C20.0964 19.8794 20.3763 19.4494 20.559 18.976C20.8004 18.3226 20.9279 17.6326 20.936 16.936C20.99 15.78 21 15.432 21 12.5C21 9.568 20.99 9.222 20.936 8.064Z" fill="#47A061"/>
<path id="Vector_2" d="M17.793 8.1182C17.6695 7.79774 17.4802 7.50672 17.2373 7.26387C16.9945 7.02102 16.7035 6.83173 16.383 6.7082C15.941 6.5448 15.4742 6.45821 15.003 6.4522C14.219 6.4162 13.983 6.4082 12 6.4082C10.017 6.4082 9.78201 6.4162 9.00001 6.4522C8.52877 6.45726 8.06194 6.54352 7.62001 6.7072C6.97101 6.9572 6.46001 7.4692 6.21001 8.1172C6.04601 8.5602 5.96001 9.0272 5.95401 9.4972C5.91801 10.2812 5.91101 10.5162 5.91101 12.5002C5.91101 14.4842 5.91801 14.7202 5.95401 15.5032C5.95901 15.9742 6.04601 16.4412 6.20901 16.8832C6.33259 17.2036 6.5219 17.4946 6.76474 17.7375C7.00758 17.9803 7.29858 18.1696 7.61901 18.2932C8.06201 18.4562 8.52901 18.5432 8.99901 18.5482C9.78201 18.5842 10.017 18.5912 12.001 18.5912C13.985 18.5912 14.221 18.5842 15.004 18.5482C15.4753 18.5427 15.9421 18.4561 16.384 18.2922C16.7044 18.1686 16.9954 17.9793 17.2383 17.7365C17.4811 17.4936 17.6704 17.2026 17.794 16.8822C17.958 16.4412 18.044 15.9742 18.05 15.5022C18.086 14.7192 18.093 14.4842 18.093 12.5002C18.093 10.5162 18.086 10.2812 18.05 9.4982C18.0446 9.02691 17.958 8.56009 17.794 8.1182M12 16.3152C11.499 16.3152 11.0029 16.2165 10.5401 16.0248C10.0772 15.8331 9.65665 15.5521 9.3024 15.1978C8.94814 14.8436 8.66713 14.423 8.47541 13.9601C8.28369 13.4973 8.18501 13.0012 8.18501 12.5002C8.18501 11.9992 8.28369 11.5031 8.47541 11.0403C8.66713 10.5774 8.94814 10.1568 9.3024 9.80259C9.65665 9.44833 10.0772 9.16732 10.5401 8.9756C11.0029 8.78388 11.499 8.6852 12 8.6852C13.0118 8.6852 13.9822 9.08714 14.6976 9.80259C15.4131 10.518 15.815 11.4884 15.815 12.5002C15.815 13.512 15.4131 14.4824 14.6976 15.1978C13.9822 15.9133 13.0118 16.3152 12 16.3152ZM15.966 9.4252C15.7347 9.41746 15.5155 9.32014 15.3547 9.15379C15.1938 8.98745 15.1039 8.76511 15.1039 8.5337C15.1039 8.3023 15.1938 8.07995 15.3547 7.91361C15.5155 7.74727 15.7347 7.64995 15.966 7.6422C16.1973 7.64927 16.4178 7.74597 16.5792 7.91186C16.7405 8.07776 16.8311 8.29987 16.8318 8.53129C16.8324 8.76271 16.7431 8.98532 16.5827 9.15211C16.4222 9.31891 16.2033 9.41683 15.972 9.4252H15.966Z" fill="#47A061"/>
<path id="Vector_3" d="M12 10.0229C11.51 10.0229 11.0311 10.1682 10.6238 10.4404C10.2165 10.7126 9.89898 11.0994 9.7115 11.552C9.52402 12.0047 9.47497 12.5027 9.57055 12.9832C9.66612 13.4637 9.90203 13.905 10.2484 14.2515C10.5949 14.5979 11.0362 14.8338 11.5167 14.9294C11.9972 15.0249 12.4952 14.9759 12.9479 14.7884C13.4005 14.6009 13.7873 14.2834 14.0595 13.8761C14.3317 13.4688 14.477 12.9899 14.477 12.4999C14.477 11.8432 14.2161 11.2133 13.7518 10.7488C13.2875 10.2843 12.6577 10.0232 12.001 10.0229" fill="#47A061"/>
<path id="Vector_4" d="M21.93 7.57C21.921 6.79682 21.7789 6.03096 21.51 5.306C21.3144 4.77596 21.0024 4.29654 20.597 3.903C20.2035 3.49754 19.7241 3.18554 19.194 2.99C18.4685 2.72165 17.7024 2.5796 16.929 2.57C15.642 2.514 15.257 2.5 12 2.5C8.745 2.5 8.358 2.512 7.072 2.57C6.29853 2.57938 5.53241 2.72144 4.807 2.99C4.27667 3.18504 3.79712 3.49711 3.404 3.903C2.99932 4.29712 2.68745 4.77637 2.491 5.306C2.22269 6.03148 2.08064 6.79756 2.071 7.571C2.014 8.858 2 9.244 2 12.501C2 15.758 2.012 16.144 2.071 17.43C2.081 18.203 2.222 18.97 2.491 19.695C2.686 20.225 2.998 20.705 3.403 21.097C3.79677 21.5021 4.27613 21.814 4.806 22.01C5.53158 22.2792 6.29814 22.4213 7.072 22.43C8.357 22.489 8.744 22.5 12 22.5C15.257 22.5 15.643 22.488 16.93 22.43C17.7032 22.4211 18.4691 22.279 19.194 22.01C19.7202 21.8072 20.1982 21.4964 20.5971 21.0977C20.9959 20.699 21.3069 20.2212 21.51 19.695C21.778 18.969 21.92 18.203 21.93 17.43C21.988 16.143 22 15.756 22 12.5C22 9.243 21.988 8.858 21.93 7.57ZM19.385 15.563C19.3732 16.1796 19.2565 16.7896 19.04 17.367C18.8491 17.8605 18.5572 18.3088 18.183 18.683C17.8088 19.0572 17.3605 19.3491 16.867 19.54C16.2898 19.7561 15.6802 19.8728 15.064 19.885C14.271 19.922 14.018 19.93 12 19.93C9.982 19.93 9.73 19.921 8.937 19.885C8.32082 19.8727 7.71119 19.7561 7.134 19.54C6.64024 19.3492 6.19179 19.0574 5.81741 18.6832C5.44303 18.309 5.15099 17.8607 4.96 17.367C4.74377 16.7895 4.62712 16.1795 4.615 15.563C4.58 14.771 4.57 14.518 4.57 12.5C4.57 10.482 4.579 10.229 4.615 9.437C4.62712 8.82048 4.74377 8.21049 4.96 7.633C5.15093 7.1393 5.44296 6.69095 5.81735 6.31674C6.19173 5.94253 6.64021 5.65071 7.134 5.46C7.71117 5.24388 8.32082 5.12723 8.937 5.115C9.73 5.078 9.984 5.07 12.001 5.07C14.018 5.07 14.271 5.079 15.064 5.115C15.6805 5.12696 16.2906 5.24362 16.868 5.46C17.3614 5.65105 17.8094 5.94301 18.1834 6.3172C18.5574 6.69139 18.8492 7.13955 19.04 7.633C19.257 8.211 19.373 8.82 19.385 9.437C19.421 10.229 19.43 10.482 19.43 12.5C19.43 14.518 19.421 14.77 19.385 15.563Z" fill="#47A061"/>
</g>
</svg>
