<svg width="177" height="71" viewBox="0 0 177 71" fill="none" xmlns="http://www.w3.org/2000/svg">
<path fill-rule="evenodd" clip-rule="evenodd" d="M36.4127 12.836C33.0182 14.3036 28.1191 14.3036 24.7246 12.836C21.9666 11.6435 18.8816 11.5329 16.0351 12.7824C10.0281 15.4194 7.33379 23.1253 9.9483 30.0767C9.94888 30.0782 9.94885 30.0799 9.94821 30.0814L10.7641 31.8718C13.5221 37.924 15.601 44.2683 16.962 50.7867L18.2567 56.9874C18.7048 58.7699 20.2881 60.0174 22.1024 60.0174C24.051 60.0174 25.7113 58.5831 26.0207 56.6325L27.8459 45.1236C28.0609 43.7681 29.2146 42.7714 30.5687 42.7714C31.9228 42.7714 33.0766 43.7681 33.2915 45.1236L35.1167 56.6325C35.4261 58.5831 37.0864 60.0174 39.035 60.0174C40.8493 60.0174 42.4326 58.7699 42.8807 56.9874L44.1754 50.7867C45.5364 44.2683 47.6153 37.924 50.3733 31.8718L51.1892 30.0814C51.1885 30.0799 51.1885 30.0782 51.1891 30.0767C53.8036 23.1253 51.1093 15.4194 45.1023 12.7824C42.2558 11.5329 39.1707 11.6435 36.4127 12.836Z" fill="#47A061"/>
<path d="M72.0988 26.3353V29.3345H70.5824C69.9533 29.3345 69.3579 29.4581 68.7963 29.7052C68.2571 29.9299 67.7741 30.2556 67.3472 30.6825C66.9428 31.0869 66.6171 31.5699 66.3699 32.1316C66.1453 32.6708 66.0329 33.2549 66.0329 33.8839V41.4663H63V33.8839C63 32.828 63.191 31.8507 63.5729 30.9521C63.9773 30.031 64.5277 29.2334 65.2242 28.5594C65.9206 27.863 66.7294 27.3238 67.6505 26.9419C68.5716 26.5375 69.5489 26.3353 70.5824 26.3353H72.0988ZM85.1708 36.1418L87.2938 38.2649L86.2491 39.3095C85.5302 40.0285 84.7102 40.5789 83.7891 40.9608C82.868 41.3427 81.9019 41.5337 80.8909 41.5337C79.88 41.5337 78.9139 41.3427 77.9928 40.9608C77.0717 40.5789 76.2517 40.0285 75.5327 39.3095C74.7914 38.5682 74.2409 37.7369 73.8815 36.8158C73.522 35.8722 73.3423 34.9174 73.3423 33.9513C73.3423 32.9853 73.522 32.0417 73.8815 31.1206C74.2409 30.1995 74.7914 29.3682 75.5327 28.6268C76.2741 27.8855 77.1054 27.335 78.0265 26.9756C78.9701 26.5936 79.9249 26.4027 80.8909 26.4027C81.857 26.4027 82.8006 26.5936 83.7217 26.9756C84.6653 27.335 85.5078 27.8855 86.2491 28.6268L87.2938 29.6715L78.9027 38.0627C79.7564 38.4895 80.655 38.6356 81.5986 38.5008C82.5647 38.3435 83.4072 37.9054 84.1261 37.1865L85.1708 36.1418ZM77.6558 30.7162C76.7572 31.6149 76.3078 32.6932 76.3078 33.9513C76.3078 34.6478 76.4651 35.3106 76.7796 35.9396C77.0492 35.67 77.4536 35.2656 77.9928 34.7264C78.5545 34.1648 79.1386 33.5806 79.7452 32.9741C80.3742 32.345 80.9696 31.7497 81.5312 31.188C82.1153 30.6263 82.5647 30.1882 82.8792 29.8737C82.0255 29.4469 81.1156 29.3008 80.1496 29.4356C79.206 29.5704 78.3747 29.9973 77.6558 30.7162Z" fill="#FFFEFC"/>
<path d="M103.817 20.2694V33.8839C103.817 34.9174 103.615 35.8947 103.21 36.8158C102.829 37.7369 102.289 38.5457 101.593 39.2421C100.919 39.9386 100.121 40.489 99.2002 40.8934C98.2791 41.2753 97.3018 41.4663 96.2684 41.4663C95.2349 41.4663 94.2577 41.2753 93.3365 40.8934C92.4154 40.489 91.6066 39.9386 90.9102 39.2421C90.2137 38.5457 89.6633 37.7369 89.2589 36.8158C88.877 35.8947 88.686 34.9174 88.686 33.8839C88.686 32.828 88.877 31.8507 89.2589 30.9521C89.6633 30.031 90.2137 29.2334 90.9102 28.5594C91.6066 27.863 92.4154 27.3238 93.3365 26.9419C94.2577 26.5375 95.2349 26.3353 96.2684 26.3353H100.818V20.2694H103.817ZM96.2684 38.4671C96.8974 38.4671 97.4816 38.3547 98.0207 38.1301C98.5824 37.8829 99.0654 37.5572 99.4698 37.1528C99.8967 36.7259 100.222 36.2317 100.447 35.67C100.694 35.1084 100.818 34.513 100.818 33.8839V29.3345H96.2684C95.6393 29.3345 95.044 29.4581 94.4823 29.7052C93.9207 29.9299 93.4264 30.2556 92.9995 30.6825C92.5952 31.0869 92.2694 31.5699 92.0223 32.1316C91.7976 32.6708 91.6853 33.2549 91.6853 33.8839C91.6853 34.513 91.7976 35.1084 92.0223 35.67C92.2694 36.2317 92.5952 36.7259 92.9995 37.1528C93.4264 37.5572 93.9207 37.8829 94.4823 38.1301C95.044 38.3547 95.6393 38.4671 96.2684 38.4671ZM117.076 36.1418L119.199 38.2649L118.154 39.3095C117.435 40.0285 116.615 40.5789 115.694 40.9608C114.773 41.3427 113.807 41.5337 112.796 41.5337C111.785 41.5337 110.819 41.3427 109.898 40.9608C108.977 40.5789 108.157 40.0285 107.438 39.3095C106.696 38.5682 106.146 37.7369 105.787 36.8158C105.427 35.8722 105.247 34.9174 105.247 33.9513C105.247 32.9853 105.427 32.0417 105.787 31.1206C106.146 30.1995 106.696 29.3682 107.438 28.6268C108.179 27.8855 109.011 27.335 109.932 26.9756C110.875 26.5936 111.83 26.4027 112.796 26.4027C113.762 26.4027 114.706 26.5936 115.627 26.9756C116.57 27.335 117.413 27.8855 118.154 28.6268L119.199 29.6715L110.808 38.0627C111.662 38.4895 112.56 38.6356 113.504 38.5008C114.47 38.3435 115.312 37.9054 116.031 37.1865L117.076 36.1418ZM109.561 30.7162C108.662 31.6149 108.213 32.6932 108.213 33.9513C108.213 34.6478 108.37 35.3106 108.685 35.9396C108.954 35.67 109.359 35.2656 109.898 34.7264C110.46 34.1648 111.044 33.5806 111.65 32.9741C112.279 32.345 112.875 31.7497 113.436 31.188C114.02 30.6263 114.47 30.1882 114.784 29.8737C113.931 29.4469 113.021 29.3008 112.055 29.4356C111.111 29.5704 110.28 29.9973 109.561 30.7162ZM120.557 33.9176C120.557 32.8617 120.748 31.8844 121.13 30.9858C121.535 30.0647 122.074 29.2671 122.748 28.5931C123.444 27.8967 124.253 27.3575 125.174 26.9756C126.095 26.5712 127.073 26.369 128.106 26.369C129.162 26.369 130.139 26.5712 131.038 26.9756C131.959 27.3575 132.768 27.8967 133.464 28.5931C134.161 29.2671 134.7 30.0647 135.082 30.9858C135.486 31.8844 135.688 32.8617 135.688 33.9176V41.5H132.689V33.9176C132.689 33.2886 132.566 32.7045 132.319 32.1653C132.094 31.6036 131.768 31.1206 131.341 30.7162C130.937 30.2893 130.454 29.9636 129.892 29.7389C129.331 29.4918 128.735 29.3682 128.106 29.3682C127.477 29.3682 126.882 29.4918 126.32 29.7389C125.781 29.9636 125.298 30.2893 124.871 30.7162C124.467 31.1206 124.141 31.6036 123.894 32.1653C123.669 32.7045 123.557 33.2886 123.557 33.9176V41.5H120.557V33.9176ZM146.085 38.4671V41.4663H144.602C143.569 41.4663 142.592 41.2753 141.671 40.8934C140.75 40.489 139.941 39.9386 139.244 39.2421C138.548 38.5457 137.997 37.7369 137.593 36.8158C137.211 35.8947 137.02 34.9174 137.02 33.8839V20.2694H140.019V29.3682H146.085V32.3675H140.019V33.8839C140.019 34.513 140.132 35.1084 140.356 35.67C140.603 36.2317 140.929 36.7259 141.334 37.1528C141.761 37.5572 142.255 37.8829 142.816 38.1301C143.378 38.3547 143.973 38.4671 144.602 38.4671H146.085ZM155.042 26.3353C156.098 26.3353 157.075 26.5375 157.974 26.9419C158.895 27.3238 159.692 27.863 160.366 28.5594C161.063 29.2334 161.602 30.031 161.984 30.9521C162.388 31.8507 162.591 32.828 162.591 33.8839V41.4663H155.042C154.008 41.4663 153.031 41.2753 152.11 40.8934C151.189 40.489 150.38 39.9386 149.684 39.2421C148.987 38.5457 148.437 37.7369 148.032 36.8158C147.651 35.8947 147.46 34.9174 147.46 33.8839C147.46 32.828 147.651 31.8507 148.032 30.9521C148.437 30.031 148.987 29.2334 149.684 28.5594C150.38 27.863 151.189 27.3238 152.11 26.9419C153.031 26.5375 154.008 26.3353 155.042 26.3353ZM159.591 38.4671V33.8839C159.591 33.2549 159.468 32.6708 159.221 32.1316C158.996 31.5699 158.67 31.0869 158.243 30.6825C157.839 30.2556 157.356 29.9299 156.794 29.7052C156.255 29.4581 155.671 29.3345 155.042 29.3345C154.413 29.3345 153.818 29.4581 153.256 29.7052C152.694 29.9299 152.2 30.2556 151.773 30.6825C151.369 31.0869 151.043 31.5699 150.796 32.1316C150.571 32.6708 150.459 33.2549 150.459 33.8839C150.459 34.513 150.571 35.1084 150.796 35.67C151.043 36.2317 151.369 36.7259 151.773 37.1528C152.2 37.5572 152.694 37.8829 153.256 38.1301C153.818 38.3547 154.413 38.4671 155.042 38.4671H159.591ZM163.825 20.2694H166.824V41.4663H163.825V20.2694Z" fill="#47A061"/>
<path d="M65.1909 53.6264C64.3976 53.6264 63.7376 53.3631 63.2111 52.8365C62.6845 52.303 62.4212 51.6465 62.4212 50.8672C62.4212 50.0879 62.6845 49.435 63.2111 48.9085C63.7376 48.3749 64.3976 48.1081 65.1909 48.1081C65.7104 48.1081 66.1773 48.2345 66.5915 48.4872C67.0058 48.7329 67.3077 49.0664 67.4972 49.4877L66.9285 49.8141C66.7881 49.4982 66.5599 49.249 66.244 49.0664C65.9351 48.8769 65.5841 48.7821 65.1909 48.7821C64.6082 48.7821 64.1167 48.9857 63.7166 49.3929C63.3164 49.7931 63.1163 50.2845 63.1163 50.8672C63.1163 51.45 63.3164 51.9449 63.7166 52.3521C64.1167 52.7523 64.6082 52.9524 65.1909 52.9524C65.5841 52.9524 65.9351 52.8611 66.244 52.6786C66.5529 52.489 66.7951 52.2363 66.9707 51.9203L67.5499 52.2573C67.3322 52.6786 67.0128 53.0121 66.5915 53.2578C66.1703 53.5035 65.7034 53.6264 65.1909 53.6264ZM69.2533 46.9707C69.1551 47.069 69.0357 47.1182 68.8953 47.1182C68.7549 47.1182 68.6355 47.069 68.5372 46.9707C68.4389 46.8725 68.3898 46.7531 68.3898 46.6127C68.3898 46.4723 68.4389 46.3529 68.5372 46.2546C68.6355 46.1563 68.7549 46.1072 68.8953 46.1072C69.0357 46.1072 69.1551 46.1563 69.2533 46.2546C69.3516 46.3529 69.4008 46.4723 69.4008 46.6127C69.4008 46.7531 69.3516 46.8725 69.2533 46.9707ZM68.5478 53.5V48.2345H69.2428V53.5H68.5478ZM75.878 48.2345V53.5H75.1829V49.2981L73.34 52.2889H73.2557L71.4128 49.2981V53.5H70.7177V48.2345H71.5181L73.2978 51.12L75.0776 48.2345H75.878ZM79.7837 48.1081C80.563 48.1081 81.1914 48.3854 81.6688 48.9401C82.1532 49.4877 82.3954 50.1371 82.3954 50.8883C82.3954 50.9655 82.3884 51.0743 82.3744 51.2148H77.7512C77.8215 51.7483 78.0461 52.1731 78.4252 52.489C78.8114 52.7979 79.2853 52.9524 79.8469 52.9524C80.2471 52.9524 80.5911 52.8716 80.879 52.7102C81.1738 52.5417 81.395 52.324 81.5424 52.0572L82.1532 52.4153C81.9215 52.7874 81.6056 53.0823 81.2054 53.2999C80.8053 53.5176 80.3489 53.6264 79.8364 53.6264C79.008 53.6264 78.334 53.3666 77.8144 52.8471C77.2949 52.3275 77.0351 51.6676 77.0351 50.8672C77.0351 50.0809 77.2914 49.4245 77.8039 48.8979C78.3164 48.3714 78.9764 48.1081 79.7837 48.1081ZM79.7837 48.7821C79.2361 48.7821 78.7763 48.9471 78.4042 49.277C78.0391 49.6 77.8215 50.0212 77.7512 50.5408H81.6793C81.6091 49.9861 81.395 49.5544 81.0369 49.2455C80.6789 48.9365 80.2611 48.7821 79.7837 48.7821ZM84.3435 47.392V46.7812H87.0816V47.392H84.3435ZM87.3343 48.2345H87.9241V53.5H87.229V49.4455L84.0908 53.5H83.501V48.2345H84.1961V52.2889L87.3343 48.2345ZM93.1219 48.2345H93.8169V53.5H93.1219V51.2042H90.089V53.5H89.3939V48.2345H90.089V50.5302H93.1219V48.2345ZM99.8151 48.2345H100.51V53.5H99.8151V52.468C99.3307 53.2402 98.6216 53.6264 97.6878 53.6264C96.9366 53.6264 96.2942 53.3596 95.7607 52.826C95.2341 52.2924 94.9708 51.6395 94.9708 50.8672C94.9708 50.095 95.2341 49.442 95.7607 48.9085C96.2942 48.3749 96.9366 48.1081 97.6878 48.1081C98.6216 48.1081 99.3307 48.4942 99.8151 49.2665V48.2345ZM96.2662 52.3521C96.6663 52.7523 97.1578 52.9524 97.7405 52.9524C98.3232 52.9524 98.8147 52.7523 99.2148 52.3521C99.615 51.9449 99.8151 51.45 99.8151 50.8672C99.8151 50.2845 99.615 49.7931 99.2148 49.3929C98.8147 48.9857 98.3232 48.7821 97.7405 48.7821C97.1578 48.7821 96.6663 48.9857 96.2662 49.3929C95.866 49.7931 95.6659 50.2845 95.6659 50.8672C95.6659 51.45 95.866 51.9449 96.2662 52.3521ZM107.068 53.6264C106.275 53.6264 105.615 53.3631 105.088 52.8365C104.562 52.303 104.299 51.6465 104.299 50.8672C104.299 50.0879 104.562 49.435 105.088 48.9085C105.615 48.3749 106.275 48.1081 107.068 48.1081C107.588 48.1081 108.055 48.2345 108.469 48.4872C108.883 48.7329 109.185 49.0664 109.375 49.4877L108.806 49.8141C108.666 49.4982 108.437 49.249 108.121 49.0664C107.812 48.8769 107.461 48.7821 107.068 48.7821C106.486 48.7821 105.994 48.9857 105.594 49.3929C105.194 49.7931 104.994 50.2845 104.994 50.8672C104.994 51.45 105.194 51.9449 105.594 52.3521C105.994 52.7523 106.486 52.9524 107.068 52.9524C107.461 52.9524 107.812 52.8611 108.121 52.6786C108.43 52.489 108.673 52.2363 108.848 51.9203L109.427 52.2573C109.21 52.6786 108.89 53.0121 108.469 53.2578C108.048 53.5035 107.581 53.6264 107.068 53.6264ZM114.113 48.2345V48.9085H112.249V53.5H111.554V48.9085H109.69V48.2345H114.113ZM119.167 52.8365C118.634 53.3631 117.981 53.6264 117.209 53.6264C116.436 53.6264 115.78 53.3631 115.239 52.8365C114.706 52.303 114.439 51.6465 114.439 50.8672C114.439 50.0879 114.706 49.435 115.239 48.9085C115.78 48.3749 116.436 48.1081 117.209 48.1081C117.981 48.1081 118.634 48.3749 119.167 48.9085C119.708 49.435 119.978 50.0879 119.978 50.8672C119.978 51.6465 119.708 52.303 119.167 52.8365ZM115.734 52.3521C116.134 52.7523 116.626 52.9524 117.209 52.9524C117.791 52.9524 118.283 52.7523 118.683 52.3521C119.083 51.9449 119.283 51.45 119.283 50.8672C119.283 50.2845 119.083 49.7931 118.683 49.3929C118.283 48.9857 117.791 48.7821 117.209 48.7821C116.626 48.7821 116.134 48.9857 115.734 49.3929C115.334 49.7931 115.134 50.2845 115.134 50.8672C115.134 51.45 115.334 51.9449 115.734 52.3521ZM126.302 48.2345V53.5H125.606V49.2981L123.764 52.2889H123.679L121.836 49.2981V53.5H121.141V48.2345H121.942L123.721 51.12L125.501 48.2345H126.302ZM132.303 48.2345H132.998V53.5H132.303V52.468C131.819 53.2402 131.109 53.6264 130.176 53.6264C129.425 53.6264 128.782 53.3596 128.249 52.826C127.722 52.2924 127.459 51.6395 127.459 50.8672C127.459 50.095 127.722 49.442 128.249 48.9085C128.782 48.3749 129.425 48.1081 130.176 48.1081C131.109 48.1081 131.819 48.4942 132.303 49.2665V48.2345ZM128.754 52.3521C129.154 52.7523 129.646 52.9524 130.228 52.9524C130.811 52.9524 131.303 52.7523 131.703 52.3521C132.103 51.9449 132.303 51.45 132.303 50.8672C132.303 50.2845 132.103 49.7931 131.703 49.3929C131.303 48.9857 130.811 48.7821 130.228 48.7821C129.646 48.7821 129.154 48.9857 128.754 49.3929C128.354 49.7931 128.154 50.2845 128.154 50.8672C128.154 51.45 128.354 51.9449 128.754 52.3521ZM138.261 48.2345V48.9085H136.397V53.5H135.702V48.9085H133.838V48.2345H138.261ZM143.315 52.8365C142.781 53.3631 142.128 53.6264 141.356 53.6264C140.584 53.6264 139.927 53.3631 139.387 52.8365C138.853 52.303 138.586 51.6465 138.586 50.8672C138.586 50.0879 138.853 49.435 139.387 48.9085C139.927 48.3749 140.584 48.1081 141.356 48.1081C142.128 48.1081 142.781 48.3749 143.315 48.9085C143.855 49.435 144.126 50.0879 144.126 50.8672C144.126 51.6465 143.855 52.303 143.315 52.8365ZM139.882 52.3521C140.282 52.7523 140.773 52.9524 141.356 52.9524C141.939 52.9524 142.43 52.7523 142.83 52.3521C143.23 51.9449 143.431 51.45 143.431 50.8672C143.431 50.2845 143.23 49.7931 142.83 49.3929C142.43 48.9857 141.939 48.7821 141.356 48.7821C140.773 48.7821 140.282 48.9857 139.882 49.3929C139.481 49.7931 139.281 50.2845 139.281 50.8672C139.281 51.45 139.481 51.9449 139.882 52.3521ZM149.401 48.2345V53.5H148.706V48.9085H146.326V51.2569C146.326 52.1345 146.157 52.7383 145.82 53.0682C145.49 53.3982 145.034 53.5421 144.451 53.5V52.8471C144.851 52.8892 145.146 52.7944 145.336 52.5627C145.532 52.3311 145.631 51.8958 145.631 51.2569V48.2345H149.401ZM155.286 52.8365C154.752 53.3631 154.099 53.6264 153.327 53.6264C152.554 53.6264 151.898 53.3631 151.357 52.8365C150.824 52.303 150.557 51.6465 150.557 50.8672C150.557 50.0879 150.824 49.435 151.357 48.9085C151.898 48.3749 152.554 48.1081 153.327 48.1081C154.099 48.1081 154.752 48.3749 155.286 48.9085C155.826 49.435 156.096 50.0879 156.096 50.8672C156.096 51.6465 155.826 52.303 155.286 52.8365ZM151.852 52.3521C152.253 52.7523 152.744 52.9524 153.327 52.9524C153.909 52.9524 154.401 52.7523 154.801 52.3521C155.201 51.9449 155.401 51.45 155.401 50.8672C155.401 50.2845 155.201 49.7931 154.801 49.3929C154.401 48.9857 153.909 48.7821 153.327 48.7821C152.744 48.7821 152.253 48.9857 151.852 49.3929C151.452 49.7931 151.252 50.2845 151.252 50.8672C151.252 51.45 151.452 51.9449 151.852 52.3521ZM160.629 48.2345V48.9085H157.955V53.5H157.26V48.2345H160.629ZM162.182 46.9707C162.083 47.069 161.964 47.1182 161.824 47.1182C161.683 47.1182 161.564 47.069 161.466 46.9707C161.367 46.8725 161.318 46.7531 161.318 46.6127C161.318 46.4723 161.367 46.3529 161.466 46.2546C161.564 46.1563 161.683 46.1072 161.824 46.1072C161.964 46.1072 162.083 46.1563 162.182 46.2546C162.28 46.3529 162.329 46.4723 162.329 46.6127C162.329 46.7531 162.28 46.8725 162.182 46.9707ZM161.476 53.5V48.2345H162.171V53.5H161.476ZM167.437 48.2345V53.5H166.742V51.478H165.837L164.215 53.5H163.33L164.994 51.457C164.573 51.3938 164.225 51.2183 163.951 50.9304C163.678 50.6426 163.541 50.288 163.541 49.8668C163.541 49.3894 163.709 48.9997 164.046 48.6978C164.39 48.3889 164.808 48.2345 165.299 48.2345H167.437ZM165.299 50.8251H166.742V48.9085H165.299C165.005 48.9085 164.752 48.9962 164.541 49.1717C164.338 49.3473 164.236 49.5789 164.236 49.8668C164.236 50.1546 164.338 50.3863 164.541 50.5618C164.752 50.7374 165.005 50.8251 165.299 50.8251Z" fill="#FFFEFC"/>
</svg>
