<svg width="24" height="25" viewBox="0 0 24 25" fill="none" xmlns="http://www.w3.org/2000/svg">
<g id="solar:phone-calling-bold-duotone">
<path id="Vector" opacity="0.5" d="M15.556 15.048L15.101 15.528C15.101 15.528 14.018 16.667 11.063 13.556C8.10798 10.445 9.19098 9.306 9.19098 9.306L9.47798 9.003C10.184 8.259 10.251 7.065 9.63398 6.193L8.37398 4.41C7.60998 3.33 6.13498 3.188 5.25998 4.109L3.69098 5.76C3.25798 6.217 2.96798 6.808 3.00298 7.465C3.09298 9.145 3.81098 12.758 7.81498 16.975C12.062 21.445 16.047 21.623 17.676 21.462C18.192 21.412 18.64 21.133 19.001 20.753L20.421 19.257C21.381 18.247 21.111 16.517 19.883 15.811L17.973 14.711C17.167 14.248 16.186 14.384 15.556 15.047" fill="#FFFEFC"/>
<path id="Vector_2" d="M13.2599 2.38C13.2921 2.1837 13.4008 2.00817 13.5622 1.89193C13.7236 1.7757 13.9246 1.72825 14.1209 1.76C14.1459 1.765 14.2279 1.78 14.2709 1.79C14.3559 1.808 14.4749 1.838 14.6229 1.88C14.9199 1.967 15.3349 2.11 15.8329 2.338C16.8289 2.795 18.1539 3.594 19.5299 4.969C20.9059 6.345 21.7049 7.671 22.1619 8.667C22.3899 9.165 22.5319 9.579 22.6189 9.877C22.6628 10.0267 22.7005 10.1782 22.7319 10.331L22.7369 10.362C22.7699 10.56 22.7236 10.7631 22.6082 10.9273C22.4928 11.0916 22.3174 11.2039 22.1199 11.24C21.9241 11.2718 21.7237 11.2247 21.5625 11.1091C21.4014 10.9934 21.2926 10.8187 21.2599 10.623C21.2395 10.5125 21.2124 10.4033 21.1789 10.296C21.0768 9.95257 20.9498 9.61702 20.7989 9.292C20.4089 8.442 19.7069 7.268 18.4689 6.03C17.2319 4.792 16.0579 4.091 15.2069 3.701C14.8823 3.55022 14.547 3.42322 14.2039 3.321C14.0987 3.29131 13.9927 3.26464 13.8859 3.241C13.6895 3.2083 13.5138 3.0997 13.3967 2.93864C13.2796 2.77758 13.2305 2.57694 13.2599 2.38Z" fill="#FFFEFC"/>
<path id="Vector_3" fill-rule="evenodd" clip-rule="evenodd" d="M13.486 5.83C13.5129 5.73524 13.5583 5.64672 13.6195 5.5695C13.6807 5.49227 13.7565 5.42786 13.8426 5.37995C13.9287 5.33203 14.0233 5.30154 14.1212 5.29023C14.2191 5.27891 14.3182 5.28699 14.413 5.314L14.416 5.315L14.419 5.316L14.427 5.318L14.447 5.324L14.503 5.344C14.7687 5.44639 15.0253 5.57117 15.27 5.717C15.759 6.007 16.427 6.487 17.212 7.273C17.997 8.058 18.478 8.726 18.768 9.215C18.913 9.46 19.009 9.659 19.071 9.805C19.1042 9.88137 19.1343 9.95911 19.161 10.038L19.166 10.058L19.169 10.066V10.069L19.17 10.07C19.17 10.07 19.17 10.072 18.45 10.278L19.17 10.072C19.2208 10.2612 19.1955 10.4628 19.0996 10.6336C19.0036 10.8045 18.8447 10.931 18.6567 10.9861C18.4687 11.0412 18.2666 11.0206 18.0936 10.9287C17.9206 10.8367 17.7904 10.6807 17.731 10.494L17.728 10.484C17.6577 10.3099 17.5741 10.1414 17.478 9.98C17.254 9.603 16.851 9.033 16.151 8.333C15.451 7.633 14.882 7.231 14.505 7.008C14.3436 6.91187 14.1751 6.82829 14.001 6.758L13.991 6.754C13.8021 6.69721 13.6431 6.56828 13.5486 6.39515C13.4541 6.22202 13.4316 6.01962 13.486 5.83Z" fill="#FFFEFC"/>
</g>
</svg>
